<?xml version="1.0" encoding="UTF-8"?>
<svg version="1.1" xmlns="http://www.w3.org/2000/svg" width="515" height="484">
<path d="M0 0 C1.12416679 -0.00445668 1.12416679 -0.00445668 2.27104402 -0.0090034 C4.77187365 -0.0176461 7.27265517 -0.01919488 9.77349854 -0.02069092 C11.57094423 -0.02532221 13.36838894 -0.03034729 15.16583252 -0.03573608 C20.04202584 -0.04883161 24.91820541 -0.05529941 29.79441357 -0.05974674 C32.84353761 -0.0626819 35.89265793 -0.06678753 38.94178009 -0.07125092 C48.48962312 -0.08491798 58.03745761 -0.09458866 67.58530974 -0.09845281 C78.59250232 -0.10293257 89.59957065 -0.12048003 100.60672545 -0.1494534 C109.12498151 -0.17109425 117.64320267 -0.18115836 126.16148591 -0.18249393 C131.24452386 -0.18354017 136.32744489 -0.1894097 141.4104538 -0.20731354 C146.19410797 -0.22383591 150.97755786 -0.22592953 155.76123047 -0.21717453 C157.51150308 -0.2164064 159.26178686 -0.22071715 161.01203156 -0.23063278 C176.94507755 -0.31556529 187.82962936 1.88389828 199.70759583 13.11340332 C201.23821555 14.62943554 202.76085353 16.15355615 204.27667236 17.68438721 C205.11679367 18.52085785 205.95691498 19.35732849 206.82249451 20.21914673 C209.57302943 22.96163244 212.31263962 25.71474283 215.05181885 28.46856689 C216.96585579 30.38458392 218.88184487 32.29864503 220.7976532 34.21289062 C224.79783868 38.21219692 228.79203842 42.21740359 232.78253174 46.22637939 C237.39843694 50.86354072 242.02320854 55.49171157 246.65286022 60.11514592 C251.1143554 64.57095627 255.57017613 69.03239733 260.02320671 73.49666595 C261.91660375 75.3947111 263.81187601 77.29085431 265.70865059 79.18552399 C268.34697244 81.82347713 270.97873335 84.46779876 273.60870361 87.11407471 C274.79373978 88.29539474 274.79373978 88.29539474 276.00271606 89.50057983 C276.71332687 90.21827545 277.42393768 90.93597107 278.15608215 91.67541504 C278.77858636 92.29997211 279.40109056 92.92452919 280.04245853 93.56801224 C281.3604126 95.14044189 281.3604126 95.14044189 281.3604126 97.14044189 C282.0204126 97.14044189 282.6804126 97.14044189 283.3604126 97.14044189 C288.70383233 106.75777223 290.2706354 114.29014022 290.1572876 125.26934814 C290.16134239 126.67608745 290.16717626 128.08282261 290.17468262 129.48954773 C290.18344175 132.40850661 290.17094136 135.32635065 290.14263916 138.24517822 C290.10816525 141.98159619 290.12836429 145.71545508 290.16407394 149.45178318 C290.185748 152.3438808 290.17886418 155.23536941 290.16330719 158.12748528 C290.15931716 159.50577033 290.16417294 160.8841114 290.17818451 162.26233101 C290.26312044 172.94420568 290.26312044 172.94420568 288.04168701 175.88796997 C285.88421443 177.39694634 284.00473846 178.14044189 281.3604126 178.14044189 C281.3604126 178.80044189 281.3604126 179.46044189 281.3604126 180.14044189 C279.42794823 181.40251892 277.43765212 182.57685061 275.4229126 183.70294189 C271.67423152 185.61685434 271.67423152 185.61685434 268.3604126 188.14044189 C268.12848395 189.65513638 267.94826021 191.17798751 267.7979126 192.70294189 C267.71412354 193.52923096 267.63033447 194.35552002 267.54400635 195.20684814 C267.48342041 195.84493408 267.42283447 196.48302002 267.3604126 197.14044189 C277.34532685 192.80130038 287.20291283 188.51417941 296.50494385 182.82012939 C299.7326748 180.92146413 303.05649962 179.27334253 306.4229126 177.64044189 C312.71365518 174.53995515 318.52968624 171.02478417 324.3604126 167.14044189 C325.31431885 166.53587158 326.2682251 165.93130127 327.2510376 165.30841064 C333.64523088 161.19905345 339.44338441 156.72119867 345.08453369 151.64532471 C349.04954089 148.14044189 349.04954089 148.14044189 352.3604126 148.14044189 C356.43815185 159.5050288 359.96690931 170.86650347 362.6729126 182.64044189 C362.91477295 183.68828857 363.1566333 184.73613525 363.40582275 185.81573486 C374.82722128 237.01483003 371.38760247 291.97646729 342.9229126 337.14044189 C340.77415714 340.49983266 338.57245903 343.82237225 336.3604126 347.14044189 C335.7004126 347.14044189 335.0404126 347.14044189 334.3604126 347.14044189 C334.1129126 347.86231689 333.8654126 348.58419189 333.6104126 349.32794189 C332.23771668 352.41650771 330.63687964 354.65055607 328.3604126 357.14044189 C327.7004126 357.14044189 327.0404126 357.14044189 326.3604126 357.14044189 C326.09269043 357.73196045 325.82496826 358.323479 325.5491333 358.93292236 C323.55436529 362.63731595 320.51654858 365.32262014 317.5479126 368.26544189 C316.87357178 368.93414307 316.19923096 369.60284424 315.50445557 370.29180908 C309.50385858 376.14997122 303.24950116 381.34233997 296.3604126 386.14044189 C295.74005127 386.57807861 295.11968994 387.01571533 294.48052979 387.46661377 C278.61910888 398.54368335 260.86180277 407.06495533 242.6104126 413.45294189 C231.72778406 417.27599688 221.57910097 422.09263627 212.55963135 429.41387939 C210.3604126 431.14044189 210.3604126 431.14044189 208.3604126 431.14044189 C208.3604126 431.80044189 208.3604126 432.46044189 208.3604126 433.14044189 C206.8213501 434.62091064 206.8213501 434.62091064 204.7354126 436.32794189 C201.27253992 439.25050819 198.38530352 442.29875092 195.5869751 445.85528564 C195.18220947 446.27938721 194.77744385 446.70348877 194.3604126 447.14044189 C193.7004126 447.14044189 193.0404126 447.14044189 192.3604126 447.14044189 C192.0510376 447.94481689 191.7416626 448.74919189 191.4229126 449.57794189 C190.3604126 452.14044189 190.3604126 452.14044189 189.3604126 453.14044189 C186.02713418 453.28288969 182.69587366 453.18266292 179.3604126 453.14044189 C179.02540893 446.10071198 179.7893707 440.17239488 181.8604126 433.45294189 C182.2609082 432.11042358 182.2609082 432.11042358 182.66949463 430.74078369 C189.59048006 407.92050419 198.29392546 386.25583676 209.3604126 365.14044189 C209.79095947 364.31294434 210.22150635 363.48544678 210.6651001 362.63287354 C214.39958305 355.60499323 218.61265643 349.01401057 223.1104126 342.45294189 C223.78201416 341.45327393 224.45361572 340.45360596 225.14556885 339.42364502 C225.78881104 338.4806958 226.43205322 337.53774658 227.0947876 336.56622314 C227.67454346 335.71455566 228.25429932 334.86288818 228.85162354 333.9854126 C229.34952393 333.37657227 229.84742432 332.76773193 230.3604126 332.14044189 C231.0204126 332.14044189 231.6804126 332.14044189 232.3604126 332.14044189 C232.68332275 331.10983643 232.68332275 331.10983643 233.01275635 330.05841064 C234.75547072 326.28505518 237.18560737 323.54774409 239.9229126 320.45294189 C243.50960963 316.55438957 243.50960963 316.55438957 246.3604126 312.14044189 C247.0204126 312.14044189 247.6804126 312.14044189 248.3604126 312.14044189 C248.3604126 311.48044189 248.3604126 310.82044189 248.3604126 310.14044189 C249.0204126 310.14044189 249.6804126 310.14044189 250.3604126 310.14044189 C250.57568604 309.60677002 250.79095947 309.07309814 251.01275635 308.52325439 C252.85618103 305.26386582 255.36054633 302.71232419 257.9229126 300.01544189 C261.54675167 296.37640783 261.54675167 296.37640783 264.3604126 292.14044189 C265.0204126 292.14044189 265.6804126 292.14044189 266.3604126 292.14044189 C266.7316626 291.30512939 266.7316626 291.30512939 267.1104126 290.45294189 C268.58966078 287.71633276 270.29508699 285.4639332 272.3604126 283.14044189 C273.0204126 283.14044189 273.6804126 283.14044189 274.3604126 283.14044189 C274.7626001 282.27419189 274.7626001 282.27419189 275.1729126 281.39044189 C276.37761119 279.10785509 277.76839375 277.1666477 279.3604126 275.14044189 C275.15912467 277.90803658 275.15912467 277.90803658 271.1104126 280.89044189 C269.3604126 282.14044189 269.3604126 282.14044189 267.3604126 282.14044189 C267.3604126 282.80044189 267.3604126 283.46044189 267.3604126 284.14044189 C265.6807251 285.64825439 265.6807251 285.64825439 263.4854126 287.26544189 C262.76611572 287.80427002 262.04681885 288.34309814 261.3057251 288.89825439 C259.3604126 290.14044189 259.3604126 290.14044189 257.3604126 290.14044189 C257.3604126 290.80044189 257.3604126 291.46044189 257.3604126 292.14044189 C255.64089286 293.67895956 253.85853762 295.14775948 252.0479126 296.57794189 C248.19574258 299.59279758 248.19574258 299.59279758 244.62994385 302.92559814 C243.3604126 304.14044189 243.3604126 304.14044189 241.3604126 304.14044189 C241.3604126 304.80044189 241.3604126 305.46044189 241.3604126 306.14044189 C240.7004126 306.14044189 240.0404126 306.14044189 239.3604126 306.14044189 C239.3604126 306.80044189 239.3604126 307.46044189 239.3604126 308.14044189 C237.37780834 309.82776467 235.37717839 311.49410247 233.3604126 313.14044189 C233.0304126 313.80044189 232.7004126 314.46044189 232.3604126 315.14044189 C231.7004126 315.14044189 231.0404126 315.14044189 230.3604126 315.14044189 C230.12451416 315.69473877 229.88861572 316.24903564 229.64556885 316.82012939 C228.0477671 319.70491431 226.04190251 321.85216222 223.7979126 324.26544189 C220.72322073 327.45551699 220.72322073 327.45551699 218.3604126 331.14044189 C217.7004126 331.14044189 217.0404126 331.14044189 216.3604126 331.14044189 C216.10388916 331.86876221 215.84736572 332.59708252 215.58306885 333.34747314 C214.30436172 336.26848145 212.80448779 338.36056656 210.7979126 340.82794189 C208.33568829 343.8282051 208.33568829 343.8282051 206.3604126 347.14044189 C205.7004126 347.14044189 205.0404126 347.14044189 204.3604126 347.14044189 C204.11162354 347.83395752 203.86283447 348.52747314 203.60650635 349.24200439 C202.45598309 351.91814313 201.09872219 354.28679482 199.54327393 356.74395752 C187.82154206 375.27803606 179.18772396 395.85690937 172.53619385 416.70294189 C171.3604126 420.14044189 171.3604126 420.14044189 169.8838501 423.51934814 C168.15010598 427.64032454 166.89114247 431.7828535 165.6729126 436.07794189 C165.44797119 436.85718018 165.22302979 437.63641846 164.99127197 438.43927002 C164.44363892 440.33850804 163.90145311 442.23931534 163.3604126 444.14044189 C159.51959229 443.37530518 159.51959229 443.37530518 158.0869751 441.26153564 C153.35304052 429.72886524 148.3604126 415.6616158 148.3604126 403.14044189 C147.56564829 403.14320727 146.77088398 403.14597265 145.9520359 403.14882183 C126.58768335 403.21515884 107.22335357 403.26476 87.85891151 403.29587841 C78.49429867 403.31132815 69.12976182 403.33238139 59.76519775 403.36676025 C51.60027748 403.39672066 43.43541227 403.41603065 35.27043855 403.42270738 C30.94964873 403.42660841 26.62901635 403.43573669 22.30827713 403.45763206 C18.23549805 403.4781023 14.16294023 403.48425456 10.09011459 403.47976494 C8.60107467 403.48058545 7.11202681 403.48648811 5.62303162 403.49805832 C-8.45519955 403.60202134 -20.14698864 401.27304611 -30.66693115 391.19903564 C-34.6395874 386.72161837 -34.6395874 386.72161837 -34.6395874 384.14044189 C-35.2995874 384.14044189 -35.9595874 384.14044189 -36.6395874 384.14044189 C-37.27155124 382.6433625 -37.89473133 381.14257486 -38.5145874 379.64044189 C-38.86263428 378.80512939 -39.21068115 377.96981689 -39.5692749 377.10919189 C-42.56052896 368.81228283 -42.92864709 361.46925321 -42.90701294 352.69311523 C-42.91075354 351.32945163 -42.91535669 349.96579017 -42.92074358 348.60213208 C-42.93293844 344.86942852 -42.93271729 341.13681481 -42.93035483 337.40409589 C-42.92994577 333.37259885 -42.9409943 329.34113029 -42.95046997 325.30964661 C-42.96706164 317.41656791 -42.97257869 309.52351909 -42.97369473 301.63042441 C-42.97464607 295.21242594 -42.97876068 288.79443731 -42.98509598 282.37644196 C-43.00270339 264.16776821 -43.01193563 245.959118 -43.01043503 227.75043568 C-43.01035512 226.76941605 -43.01027521 225.78839642 -43.01019287 224.77764893 C-43.01011111 223.79542717 -43.01002935 222.81320542 -43.00994511 221.80121937 C-43.00913235 205.88597268 -43.02826874 189.97082065 -43.0564696 174.05560133 C-43.08521834 157.70174391 -43.0990088 141.34793263 -43.09728205 124.99404931 C-43.09661884 115.8175025 -43.10208104 106.64105495 -43.12363815 97.46453094 C-43.14187613 89.65102723 -43.14617583 81.83766777 -43.13261931 74.02415195 C-43.12610283 70.04083459 -43.12592436 66.05779376 -43.14332581 62.07450294 C-43.15912054 58.42129073 -43.15612849 54.76857283 -43.13875754 51.11537221 C-43.13426437 49.18204049 -43.14929461 47.24869303 -43.16523683 45.31542182 C-43.08030882 34.49384127 -40.4525807 25.27514565 -34.6395874 16.14044189 C-33.9795874 16.14044189 -33.3195874 16.14044189 -32.6395874 16.14044189 C-32.38306396 15.55262939 -32.12654053 14.96481689 -31.86224365 14.35919189 C-28.15068498 7.62383941 -20.77740583 3.42160036 -13.6395874 1.14044189 C-9.07232887 0.22063211 -4.6427607 -0.00581645 0 0 Z " fill="#C0DDAC" transform="translate(109.63958740234375,30.85955810546875)"/>
<path d="M0 0 C4.07773925 11.36458691 7.60649671 22.72606158 10.3125 34.5 C10.55436035 35.54784668 10.7962207 36.59569336 11.04541016 37.67529297 C22.46680869 88.87438814 19.02718988 143.8360254 -9.4375 189 C-11.58625546 192.35939076 -13.78795357 195.68193035 -16 199 C-16.66 199 -17.32 199 -18 199 C-18.2475 199.721875 -18.495 200.44375 -18.75 201.1875 C-20.12269592 204.27606582 -21.72353296 206.51011418 -24 209 C-24.66 209 -25.32 209 -26 209 C-26.26772217 209.59151855 -26.53544434 210.18303711 -26.8112793 210.79248047 C-28.80604731 214.49687406 -31.84386402 217.18217824 -34.8125 220.125 C-35.48684082 220.79370117 -36.16118164 221.46240234 -36.85595703 222.15136719 C-42.85655402 228.00952932 -49.11091144 233.20189808 -56 238 C-56.62036133 238.43763672 -57.24072266 238.87527344 -57.87988281 239.32617188 C-73.74130372 250.40324145 -91.49860983 258.92451344 -109.75 265.3125 C-120.63262854 269.13555499 -130.78131163 273.95219438 -139.80078125 281.2734375 C-142 283 -142 283 -144 283 C-144 283.66 -144 284.32 -144 285 C-145.5390625 286.48046875 -145.5390625 286.48046875 -147.625 288.1875 C-151.08787267 291.1100663 -153.97510908 294.15830902 -156.7734375 297.71484375 C-157.17820312 298.13894531 -157.58296875 298.56304687 -158 299 C-158.66 299 -159.32 299 -160 299 C-160.309375 299.804375 -160.61875 300.60875 -160.9375 301.4375 C-162 304 -162 304 -163 305 C-166.33327842 305.1424478 -169.66453893 305.04222103 -173 305 C-173.33500367 297.96027009 -172.5710419 292.03195299 -170.5 285.3125 C-170.09950439 283.96998169 -170.09950439 283.96998169 -169.69091797 282.6003418 C-162.76993253 259.78006229 -154.06648714 238.11539486 -143 217 C-142.56945312 216.17250244 -142.13890625 215.34500488 -141.6953125 214.49243164 C-137.96082954 207.46455133 -133.74775617 200.87356868 -129.25 194.3125 C-128.57839844 193.31283203 -127.90679687 192.31316406 -127.21484375 191.28320312 C-126.57160156 190.34025391 -125.92835938 189.39730469 -125.265625 188.42578125 C-124.68586914 187.57411377 -124.10611328 186.72244629 -123.50878906 185.8449707 C-123.01088867 185.23613037 -122.51298828 184.62729004 -122 184 C-121.34 184 -120.68 184 -120 184 C-119.67708984 182.96939453 -119.67708984 182.96939453 -119.34765625 181.91796875 C-117.60494188 178.14461329 -115.17480523 175.4073022 -112.4375 172.3125 C-108.85080297 168.41394767 -108.85080297 168.41394767 -106 164 C-105.34 164 -104.68 164 -104 164 C-104 163.34 -104 162.68 -104 162 C-103.34 162 -102.68 162 -102 162 C-101.78472656 161.46632813 -101.56945312 160.93265625 -101.34765625 160.3828125 C-99.50423156 157.12342392 -96.99986627 154.5718823 -94.4375 151.875 C-90.81366093 148.23596593 -90.81366093 148.23596593 -88 144 C-87.34 144 -86.68 144 -86 144 C-85.7525 143.443125 -85.505 142.88625 -85.25 142.3125 C-83.77075182 139.57589087 -82.06532561 137.32349131 -80 135 C-79.34 135 -78.68 135 -78 135 C-77.731875 134.4225 -77.46375 133.845 -77.1875 133.25 C-75.98280141 130.9674132 -74.59201885 129.0262058 -73 127 C-77.20128793 129.76759468 -77.20128793 129.76759468 -81.25 132.75 C-83 134 -83 134 -85 134 C-85 134.66 -85 135.32 -85 136 C-86.6796875 137.5078125 -86.6796875 137.5078125 -88.875 139.125 C-89.59429687 139.66382813 -90.31359375 140.20265625 -91.0546875 140.7578125 C-93 142 -93 142 -95 142 C-95 142.66 -95 143.32 -95 144 C-96.71951974 145.53851766 -98.50187497 147.00731759 -100.3125 148.4375 C-104.16467002 151.45235569 -104.16467002 151.45235569 -107.73046875 154.78515625 C-109 156 -109 156 -111 156 C-111 156.66 -111 157.32 -111 158 C-111.66 158 -112.32 158 -113 158 C-113 158.66 -113 159.32 -113 160 C-114.98260426 161.68732277 -116.9832342 163.35366057 -119 165 C-119.33 165.66 -119.66 166.32 -120 167 C-120.66 167 -121.32 167 -122 167 C-122.23589844 167.55429687 -122.47179687 168.10859375 -122.71484375 168.6796875 C-124.3126455 171.56447242 -126.31851009 173.71172032 -128.5625 176.125 C-131.63719186 179.31507509 -131.63719186 179.31507509 -134 183 C-134.66 183 -135.32 183 -136 183 C-136.25652344 183.72832031 -136.51304687 184.45664062 -136.77734375 185.20703125 C-138.05605088 188.12803955 -139.55592481 190.22012466 -141.5625 192.6875 C-144.02472431 195.68776321 -144.02472431 195.68776321 -146 199 C-146.66 199 -147.32 199 -148 199 C-148.24878906 199.69351563 -148.49757813 200.38703125 -148.75390625 201.1015625 C-149.90442951 203.77770124 -151.2616904 206.14635292 -152.81713867 208.60351562 C-164.53887054 227.13759416 -173.17268864 247.71646748 -179.82421875 268.5625 C-181 272 -181 272 -182.4765625 275.37890625 C-184.21030661 279.49988265 -185.46927013 283.64241161 -186.6875 287.9375 C-186.91244141 288.71673828 -187.13738281 289.49597656 -187.36914062 290.29882812 C-187.91677367 292.19806614 -188.45895949 294.09887345 -189 296 C-190.91821289 295.6262207 -190.91821289 295.6262207 -193 295 C-200.558792 283.33464041 -203.44314271 265.59378072 -203.76171875 251.9453125 C-203.88119055 248.97776261 -203.88119055 248.97776261 -204.94555664 246.21508789 C-208.4193726 235.62312624 -208.34023654 224.22277302 -208.25 213.1875 C-208.24623352 212.48523285 -208.24246704 211.7829657 -208.23858643 211.05941772 C-208.03697409 178.94603939 -199.96223916 147.43221216 -181 121 C-180.34 121 -179.68 121 -179 121 C-178.78214844 120.30132812 -178.56429688 119.60265625 -178.33984375 118.8828125 C-176.66610266 115.28158532 -174.27767467 112.70787346 -171.5625 109.875 C-171.02826416 109.30950439 -170.49402832 108.74400879 -169.94360352 108.16137695 C-168.30356498 106.43325017 -166.65218935 104.71650209 -165 103 C-164.51756836 102.49033691 -164.03513672 101.98067383 -163.53808594 101.45556641 C-157.8811834 95.48262469 -152.10133958 90.31370971 -145.3125 85.65625 C-143.29790512 84.21336448 -141.73232924 82.75070939 -140 81 C-133.6392416 76.17982896 -126.89907653 71.99522793 -120 68 C-118.88109375 67.34773438 -117.7621875 66.69546875 -116.609375 66.0234375 C-98.54362599 55.54929088 -98.54362599 55.54929088 -92.0625 53.875 C-89.07221302 53.30402874 -89.07221302 53.30402874 -87.7578125 51.67578125 C-85.15744163 49.19676102 -82.01716979 47.85565884 -78.8125 46.3125 C-77.35806824 45.59766577 -75.90364128 44.88282176 -74.44921875 44.16796875 C-72.96628837 43.44502006 -71.48321852 42.72235737 -70 42 C-47.15398422 30.83316277 -23.25475018 18.90281373 -4.65625 1.25 C-3 0 -3 0 0 0 Z " fill="#57B64F" transform="translate(462,179)"/>
<path d="M0 0 C1.12416679 -0.00445668 1.12416679 -0.00445668 2.27104402 -0.0090034 C4.77187365 -0.0176461 7.27265517 -0.01919488 9.77349854 -0.02069092 C11.57094423 -0.02532221 13.36838894 -0.03034729 15.16583252 -0.03573608 C20.04202584 -0.04883161 24.91820541 -0.05529941 29.79441357 -0.05974674 C32.84353761 -0.0626819 35.89265793 -0.06678753 38.94178009 -0.07125092 C48.48962312 -0.08491798 58.03745761 -0.09458866 67.58530974 -0.09845281 C78.59250232 -0.10293257 89.59957065 -0.12048003 100.60672545 -0.1494534 C109.12498151 -0.17109425 117.64320267 -0.18115836 126.16148591 -0.18249393 C131.24452386 -0.18354017 136.32744489 -0.1894097 141.4104538 -0.20731354 C146.19410797 -0.22383591 150.97755786 -0.22592953 155.76123047 -0.21717453 C157.51150308 -0.2164064 159.26178686 -0.22071715 161.01203156 -0.23063278 C176.94507755 -0.31556529 187.82962936 1.88389828 199.70759583 13.11340332 C201.23821555 14.62943554 202.76085353 16.15355615 204.27667236 17.68438721 C205.11679367 18.52085785 205.95691498 19.35732849 206.82249451 20.21914673 C209.57302943 22.96163244 212.31263962 25.71474283 215.05181885 28.46856689 C216.96585579 30.38458392 218.88184487 32.29864503 220.7976532 34.21289062 C224.79783868 38.21219692 228.79203842 42.21740359 232.78253174 46.22637939 C237.39843694 50.86354072 242.02320854 55.49171157 246.65286022 60.11514592 C251.1143554 64.57095627 255.57017613 69.03239733 260.02320671 73.49666595 C261.91660375 75.3947111 263.81187601 77.29085431 265.70865059 79.18552399 C268.34697244 81.82347713 270.97873335 84.46779876 273.60870361 87.11407471 C274.79373978 88.29539474 274.79373978 88.29539474 276.00271606 89.50057983 C276.71332687 90.21827545 277.42393768 90.93597107 278.15608215 91.67541504 C278.77858636 92.29997211 279.40109056 92.92452919 280.04245853 93.56801224 C281.3604126 95.14044189 281.3604126 95.14044189 281.3604126 97.14044189 C282.0204126 97.14044189 282.6804126 97.14044189 283.3604126 97.14044189 C288.70383233 106.75777223 290.2706354 114.29014022 290.1572876 125.26934814 C290.16134239 126.67608745 290.16717626 128.08282261 290.17468262 129.48954773 C290.18344175 132.40850661 290.17094136 135.32635065 290.14263916 138.24517822 C290.10816525 141.98159619 290.12836429 145.71545508 290.16407394 149.45178318 C290.185748 152.3438808 290.17886418 155.23536941 290.16330719 158.12748528 C290.15931716 159.50577033 290.16417294 160.8841114 290.17818451 162.26233101 C290.26312044 172.94420568 290.26312044 172.94420568 288.04168701 175.88796997 C285.88421443 177.39694634 284.00473846 178.14044189 281.3604126 178.14044189 C281.3604126 178.80044189 281.3604126 179.46044189 281.3604126 180.14044189 C279.34869385 181.64825439 279.34869385 181.64825439 276.6729126 183.26544189 C275.80279541 183.80427002 274.93267822 184.34309814 274.03619385 184.89825439 C271.1698745 186.22889608 269.46535758 186.24377758 266.3604126 186.14044189 C266.35232574 185.40572662 266.34423889 184.67101135 266.33590698 183.91403198 C266.25804167 176.9979212 266.17077565 170.08198643 266.07288551 163.16613197 C266.02288956 159.61040796 265.97656016 156.05471414 265.9385376 152.49884033 C265.89468927 148.4130355 265.83502454 144.32759609 265.7744751 140.24200439 C265.75714828 138.32165878 265.75714828 138.32165878 265.73947144 136.36251831 C265.7096669 134.59090836 265.7096669 134.59090836 265.67926025 132.7835083 C265.65927475 131.21797714 265.65927475 131.21797714 265.6388855 129.62081909 C265.60197001 126.96613227 265.60197001 126.96613227 263.3604126 125.14044189 C260.70128538 124.83594782 260.70128538 124.83594782 257.55645752 124.8850708 C256.3372612 124.87811188 255.11806488 124.87115295 253.86192322 124.86398315 C253.20754461 124.86466419 252.55316601 124.86534523 251.87895775 124.86604691 C249.82092682 124.86701377 247.76341611 124.85404518 245.70545959 124.83706665 C239.85293818 124.79088834 234.00046332 124.76626071 228.14776611 124.75958252 C224.56607562 124.75451071 220.9849156 124.72996333 217.40340614 124.69425583 C215.39809332 124.67991358 213.39266296 124.68703858 211.38731384 124.6947937 C200.43843094 124.5789781 189.55042336 123.04507717 181.1104126 115.57794189 C180.21838135 114.81352783 179.3263501 114.04911377 178.4072876 113.26153564 C176.3604126 111.14044189 176.3604126 111.14044189 175.3604126 108.14044189 C174.7004126 108.14044189 174.0404126 108.14044189 173.3604126 108.14044189 C168.98405919 97.23097532 167.66333056 87.84012207 167.87213135 76.14434814 C167.88148843 74.5739608 167.88859078 73.00355858 167.89356995 71.43315125 C167.91241291 67.35419457 167.96130815 63.27616714 168.01708984 59.1975708 C168.06878128 55.01394207 168.09118904 50.83015915 168.11627197 46.64630127 C168.16945697 38.47726103 168.25448257 30.30896792 168.3604126 22.14044189 C146.4808837 22.17763701 124.60152133 22.23753971 102.72213078 22.32434464 C92.56273706 22.36412408 82.40342068 22.39652215 72.24395752 22.41143799 C63.38714246 22.42446016 54.53049765 22.45143932 45.67377847 22.49505496 C40.98583348 22.517657 36.29809838 22.53335333 31.61009407 22.53232574 C27.19327668 22.53157839 22.77692304 22.5495593 18.36022568 22.58160973 C16.74340748 22.59009511 15.12653718 22.59186792 13.5097065 22.58624458 C3.44028205 22.55590086 -3.85125212 23.53881105 -12.4520874 28.89044189 C-19.21417811 35.8457352 -19.21609707 43.09163695 -19.1542511 52.29751587 C-19.16119663 53.61628302 -19.16814216 54.93505018 -19.17529815 56.29377997 C-19.19388106 59.93923762 -19.18763576 63.58428782 -19.17714512 67.22976208 C-19.17014059 71.16717222 -19.1861606 75.10449971 -19.19914246 79.04188538 C-19.22076739 86.74984417 -19.22065934 94.45765523 -19.21251691 102.16563438 C-19.20621264 108.43205835 -19.20735787 114.6984393 -19.21378899 120.96486282 C-19.21469064 121.85733336 -19.2155923 122.74980389 -19.21652127 123.66931898 C-19.21837251 125.48248041 -19.22023507 127.29564182 -19.22210883 129.10880323 C-19.23868232 146.10611448 -19.22997223 163.1033427 -19.21312325 180.10064895 C-19.1984296 195.64222033 -19.21305076 211.18359832 -19.24189342 226.72514479 C-19.27130513 242.69254266 -19.28225434 258.65985134 -19.27271122 274.62727511 C-19.27168869 276.4343132 -19.27069408 278.24135131 -19.26972771 280.04838943 C-19.26901312 281.38195032 -19.26901312 281.38195032 -19.2682841 282.74245184 C-19.26612216 288.99812915 -19.27591245 295.2537218 -19.29049873 301.50938034 C-19.30803804 309.13779766 -19.30788198 316.76596856 -19.28514708 324.39437626 C-19.27401879 328.28433349 -19.27080978 332.17385681 -19.28944778 336.06379509 C-19.30631169 339.62943474 -19.29982316 343.19426405 -19.275231 346.75985177 C-19.26807355 348.65091452 -19.28532996 350.54202188 -19.30364233 352.43300951 C-19.22154566 359.96796822 -18.08332721 365.91296083 -13.6395874 372.14044189 C-11.13325829 374.48050832 -8.59329032 376.40227874 -5.6395874 378.14044189 C-5.05234013 378.48854605 -4.46509285 378.8366502 -3.8600502 379.19530296 C-1.14972843 380.34895013 0.90855276 380.4021233 3.85266113 380.41891479 C4.96882813 380.43007828 6.08499512 380.44124176 7.23498535 380.45274353 C9.06485992 380.45598381 9.06485992 380.45598381 10.93170166 380.45928955 C12.86378479 380.47435799 12.86378479 380.47435799 14.8348999 380.48973083 C18.36346349 380.51702742 21.89198715 380.53217917 25.42062855 380.54515886 C29.10956716 380.56079093 32.79842428 380.5875809 36.48730469 380.6131897 C43.47116957 380.65997617 50.4550498 380.69672089 57.43899131 380.72986257 C65.39061552 380.7680849 73.34215788 380.81749476 81.29371309 380.86784673 C97.64922081 380.97116462 114.00477394 381.06042546 130.3604126 381.14044189 C131.03404632 383.86805701 131.69950704 386.59724089 132.3604126 389.32794189 C132.55119385 390.09686768 132.7419751 390.86579346 132.9385376 391.65802002 C133.11900635 392.40889893 133.2994751 393.15977783 133.4854126 393.93341064 C133.65299072 394.61943359 133.82056885 395.30545654 133.9932251 396.01226807 C134.40869826 398.4202997 134.4200359 400.70147617 134.3604126 403.14044189 C116.01864237 403.21063439 97.67690718 403.26348014 79.33503151 403.29587841 C70.81789271 403.31132373 62.30083755 403.33236841 53.78375244 403.36676025 C46.35716009 403.39673432 38.93062834 403.41603386 31.50397718 403.42270738 C27.57441985 403.42660612 23.64503581 403.43571957 19.71553421 403.45763206 C16.01045694 403.47812402 12.30562295 403.48425029 8.60049438 403.47976494 C6.60567101 403.48097275 4.6108736 403.49704795 2.61611938 403.51370239 C-10.31502895 403.46957706 -21.11800028 400.34319488 -30.66693115 391.19903564 C-34.6395874 386.72161837 -34.6395874 386.72161837 -34.6395874 384.14044189 C-35.2995874 384.14044189 -35.9595874 384.14044189 -36.6395874 384.14044189 C-37.27155124 382.6433625 -37.89473133 381.14257486 -38.5145874 379.64044189 C-38.86263428 378.80512939 -39.21068115 377.96981689 -39.5692749 377.10919189 C-42.56052896 368.81228283 -42.92864709 361.46925321 -42.90701294 352.69311523 C-42.91075354 351.32945163 -42.91535669 349.96579017 -42.92074358 348.60213208 C-42.93293844 344.86942852 -42.93271729 341.13681481 -42.93035483 337.40409589 C-42.92994577 333.37259885 -42.9409943 329.34113029 -42.95046997 325.30964661 C-42.96706164 317.41656791 -42.97257869 309.52351909 -42.97369473 301.63042441 C-42.97464607 295.21242594 -42.97876068 288.79443731 -42.98509598 282.37644196 C-43.00270339 264.16776821 -43.01193563 245.959118 -43.01043503 227.75043568 C-43.01035512 226.76941605 -43.01027521 225.78839642 -43.01019287 224.77764893 C-43.01011111 223.79542717 -43.01002935 222.81320542 -43.00994511 221.80121937 C-43.00913235 205.88597268 -43.02826874 189.97082065 -43.0564696 174.05560133 C-43.08521834 157.70174391 -43.0990088 141.34793263 -43.09728205 124.99404931 C-43.09661884 115.8175025 -43.10208104 106.64105495 -43.12363815 97.46453094 C-43.14187613 89.65102723 -43.14617583 81.83766777 -43.13261931 74.02415195 C-43.12610283 70.04083459 -43.12592436 66.05779376 -43.14332581 62.07450294 C-43.15912054 58.42129073 -43.15612849 54.76857283 -43.13875754 51.11537221 C-43.13426437 49.18204049 -43.14929461 47.24869303 -43.16523683 45.31542182 C-43.08030882 34.49384127 -40.4525807 25.27514565 -34.6395874 16.14044189 C-33.9795874 16.14044189 -33.3195874 16.14044189 -32.6395874 16.14044189 C-32.38306396 15.55262939 -32.12654053 14.96481689 -31.86224365 14.35919189 C-28.15068498 7.62383941 -20.77740583 3.42160036 -13.6395874 1.14044189 C-9.07232887 0.22063211 -4.6427607 -0.00581645 0 0 Z " fill="#2E8649" transform="translate(109.63958740234375,30.85955810546875)"/>
<path d="M0 0 C1.09983067 -0.00445668 1.09983067 -0.00445668 2.22188014 -0.0090034 C4.69152585 -0.01771088 7.16112321 -0.01920037 9.63078308 -0.02069092 C11.39634302 -0.02531766 13.16190196 -0.03034212 14.92745972 -0.03573608 C19.73330848 -0.04887632 24.53914326 -0.05530825 29.34500718 -0.05974674 C32.34582792 -0.06267496 35.3466448 -0.0667793 38.34746361 -0.07125092 C47.73139167 -0.08493036 57.11531098 -0.09459473 66.49924833 -0.09845281 C77.3407004 -0.10293427 88.18202644 -0.12048439 99.02344018 -0.1494534 C107.39716502 -0.17105372 115.77085436 -0.18115621 124.14460677 -0.18249393 C129.14873861 -0.18354317 134.15275206 -0.18947636 139.15685463 -0.20731354 C143.8641092 -0.22376563 148.571156 -0.22596367 153.27842903 -0.21717453 C155.00661016 -0.21640261 156.73480233 -0.22076726 158.46295547 -0.23063278 C160.82166238 -0.24330866 163.17962861 -0.23749964 165.53833008 -0.22705078 C166.56499345 -0.23913539 166.56499345 -0.23913539 167.61239749 -0.25146413 C172.86561647 -0.19701062 175.92019189 1.31197072 179.7721405 4.76544189 C181.6369924 8.4951457 181.48678353 12.05508341 180.9596405 16.14044189 C179.10829879 20.76879617 176.23868221 22.71941354 171.9596405 25.14044189 C168.44260406 25.64659977 168.44260406 25.64659977 164.48295593 25.65510559 C163.38518239 25.66552388 163.38518239 25.66552388 162.26523161 25.67615265 C159.82386114 25.69438395 157.38346668 25.68416979 154.94206238 25.67388916 C153.18738073 25.68094957 151.43270517 25.6896951 149.67803955 25.69999695 C144.91977934 25.72248562 140.16185183 25.71955265 135.40355873 25.71067548 C131.4297604 25.70556348 127.45602447 25.71285978 123.48223257 25.72014755 C114.10794711 25.7371445 104.73382445 25.73358227 95.35954285 25.71685791 C85.69024044 25.69993027 76.02138927 25.71578043 66.35213614 25.74808079 C58.04707293 25.77477243 49.74215023 25.78205403 41.43704844 25.77356571 C36.47816355 25.76863605 31.51955027 25.77085449 26.56069946 25.79135323 C21.89836637 25.80970405 17.23668284 25.80375908 12.57438469 25.77915382 C10.86436729 25.77414432 9.15430044 25.77763937 7.44432259 25.79030228 C5.10757712 25.80623651 2.77296989 25.79128191 0.43632507 25.76863098 C-0.87035881 25.76804467 -2.17704269 25.76745836 -3.52332306 25.76685429 C-8.16181234 24.94070215 -9.766134 23.48157355 -13.0403595 20.14044189 C-14.4908982 15.78882578 -14.6893648 11.68347902 -14.0403595 7.14044189 C-10.6231331 0.76501952 -6.80845019 0.01535418 0 0 Z " fill="#2C8648" transform="translate(143.0403594970703,191.85955810546875)"/>
<path d="M0 0 C0.9861026 -0.0115361 1.9722052 -0.0230722 2.9881897 -0.03495789 C6.23823657 -0.06916691 9.48809424 -0.08774248 12.73828125 -0.10327148 C13.85061127 -0.11017439 14.96294128 -0.11707729 16.10897827 -0.12418938 C21.9902968 -0.15997342 27.87151994 -0.18354356 33.75292969 -0.19726562 C39.82627552 -0.21384946 45.89846445 -0.27234294 51.97142029 -0.34040928 C56.6451693 -0.38515964 61.31863933 -0.39875722 65.99258423 -0.40388298 C68.23173203 -0.41178049 70.47087057 -0.43143769 72.70980835 -0.46310616 C75.84131557 -0.50449524 78.96987633 -0.50173013 82.1015625 -0.48828125 C83.0243399 -0.51030609 83.94711731 -0.53233093 84.89785767 -0.55502319 C91.04742549 -0.46531989 91.04742549 -0.46531989 93.96194458 1.86853218 C97.3649508 5.73818292 99.14645259 8.86828202 99.421875 14.05688477 C98.72606285 18.33429841 96.15472845 21.42949211 93.05078125 24.33813477 C90.18629679 26.02540121 88.08721022 26.59128957 84.77578735 26.61228943 C83.50580147 26.62725212 83.50580147 26.62725212 82.2101593 26.64251709 C80.82923347 26.6435141 80.82923347 26.6435141 79.42041016 26.64453125 C77.95632469 26.65701653 77.95632469 26.65701653 76.46266174 26.66975403 C73.23418191 26.69386099 70.00590406 26.70262681 66.77734375 26.70922852 C64.53298888 26.71819389 62.28863463 26.72731572 60.04428101 26.73658752 C55.33842516 26.75308168 50.6326405 26.7607785 45.92675781 26.76367188 C39.89842409 26.76905785 33.87075975 26.80674568 27.84261513 26.85241604 C23.20660969 26.88216514 18.57076591 26.88939497 13.93467331 26.89039803 C11.71231392 26.89460411 9.48995421 26.90705384 7.26768875 26.92791557 C4.15793935 26.95478602 1.04974782 26.95001692 -2.06005859 26.9375 C-2.97662735 26.95233429 -3.89319611 26.96716858 -4.83753967 26.98245239 C-9.17490036 26.93276497 -12.04516958 26.71615063 -15.4828186 23.92591858 C-19.88007919 19.3122472 -20.4089596 15.99682471 -20.26171875 9.74829102 C-19.80401312 6.21823634 -18.65160344 4.61382714 -15.94921875 2.33813477 C-10.64991867 0.02289135 -5.67721783 0.02342041 0 0 Z " fill="#2E8648" transform="translate(148.94921875,254.661865234375)"/>
<path d="M0 0 C1.26781815 -0.0129007 1.26781815 -0.0129007 2.56124878 -0.02606201 C3.48029495 -0.03032196 4.39934113 -0.03458191 5.34623718 -0.03897095 C6.32068787 -0.04714844 7.29513855 -0.05532593 8.29911804 -0.06375122 C11.52274465 -0.088557 14.74632741 -0.1051076 17.97001648 -0.11953735 C19.62284165 -0.12752287 19.62284165 -0.12752287 21.30905724 -0.13566971 C27.13964009 -0.16237837 32.97020168 -0.18176194 38.80082703 -0.19619751 C43.62458724 -0.20954575 48.44792535 -0.23741854 53.27153015 -0.27822876 C59.09873665 -0.32752791 64.92555978 -0.35231504 70.75296593 -0.35942459 C72.97171908 -0.36613835 75.19046364 -0.38136354 77.40909767 -0.4053154 C80.5162019 -0.43694949 83.62182656 -0.43700611 86.72904968 -0.42959595 C87.64202316 -0.44600128 88.55499664 -0.46240662 89.49563599 -0.47930908 C95.82048677 -0.41767747 98.96741937 0.95533457 103.73173523 5.15390015 C105.58553389 8.86149746 105.19097391 13.10763499 104.73173523 17.15390015 C102.73516396 21.00934812 101.33465885 22.75195106 97.73173523 25.15390015 C95.75514507 25.41396236 95.75514507 25.41396236 93.46310425 25.42805481 C92.15731667 25.4430175 92.15731667 25.4430175 90.82514954 25.45828247 C89.87288483 25.45894714 88.92062012 25.45961182 87.9394989 25.46029663 C86.93432724 25.46862015 85.92915558 25.47694366 84.89352417 25.48551941 C81.56221165 25.50966441 78.23109479 25.51839738 74.89970398 25.5249939 C72.58665914 25.53395728 70.27361491 25.54307906 67.96057129 25.55235291 C63.10750417 25.56885804 58.25450616 25.57654572 53.40141296 25.57943726 C47.18360938 25.58482046 40.96645565 25.62249221 34.74883556 25.66818142 C29.96957022 25.6979297 25.19046172 25.70516035 20.41111183 25.70616341 C18.11897622 25.71037063 15.82684035 25.72282492 13.53479576 25.74368095 C10.32676372 25.7705459 7.12024236 25.76578342 3.91215515 25.75326538 C2.49286713 25.77551682 2.49286713 25.77551682 1.04490662 25.79821777 C-3.32096517 25.74972226 -6.34292315 25.56893017 -9.84204102 22.80393982 C-13.59815768 18.70132638 -13.66670593 15.01369285 -13.61982727 9.66952515 C-13.03910766 5.51415374 -11.38015678 3.91216806 -8.26826477 1.15390015 C-5.48720463 0.215656 -2.92184147 0.02224141 0 0 Z " fill="#2B8547" transform="translate(142.2682647705078,127.84609985351563)"/>
<path d="M0 0 C2.39989427 3.5998414 2.64136132 4.75098128 2 9 C-0.57219726 13.48464263 -3.16415236 16.97327631 -8 19 C-10.06954575 19.24609566 -10.06954575 19.24609566 -12.31536865 19.24050903 C-13.17069687 19.24325836 -14.02602509 19.24600769 -14.90727234 19.24884033 C-15.83731583 19.24164978 -16.76735931 19.23445923 -17.72558594 19.22705078 C-18.71128067 19.22734283 -19.6969754 19.22763489 -20.71253967 19.22793579 C-23.96990773 19.22654269 -27.22704691 19.21098223 -30.484375 19.1953125 C-32.74310176 19.1915823 -35.00183013 19.18873536 -37.26055908 19.18673706 C-43.2052253 19.17910114 -49.14979378 19.15945291 -55.09442139 19.1373291 C-61.16059039 19.11686985 -67.22677519 19.10773517 -73.29296875 19.09765625 C-85.19535544 19.07620706 -97.09766959 19.04207153 -109 19 C-109.33 18.34 -109.66 17.68 -110 17 C-58.52 16.505 -58.52 16.505 -6 16 C-5.67 15.01 -5.34 14.02 -5 13 C-4.34 13 -3.68 13 -3 13 C-3 12.01 -3 11.02 -3 10 C-2.01 10 -1.02 10 0 10 C0 6.7 0 3.4 0 0 Z " fill="#5D9F64" transform="translate(246,262)"/>
<path d="M0 0 C0.75820903 -0.00170885 1.51641807 -0.0034177 2.29760313 -0.00517833 C4.8156478 -0.00844924 7.33342068 0.00249048 9.85144043 0.01345825 C11.66540521 0.01402289 13.47937045 0.01370479 15.29333496 0.01257324 C20.20183593 0.01200077 25.11023863 0.02373808 30.01871681 0.03772116 C35.15431847 0.05024603 40.28992253 0.0514004 45.42553711 0.05377197 C55.14343378 0.05998158 64.86128531 0.07638538 74.57916212 0.09647095 C85.6456362 0.11884612 96.71211247 0.12982745 107.77860355 0.13986182 C130.53663147 0.16075205 153.29461936 0.19591794 176.0526123 0.24050903 C176.0526123 0.57050903 176.0526123 0.90050903 176.0526123 1.24050903 C175.14354409 1.24474097 174.23447588 1.24897291 173.29786015 1.25333309 C151.16320064 1.35670395 129.02857249 1.46535127 106.89396763 1.57984829 C96.18978 1.63509167 85.48558903 1.68855889 74.78137207 1.73782349 C65.4499862 1.78077436 56.11862399 1.82707948 46.78727478 1.87738758 C41.84787657 1.90390088 36.90848279 1.92875137 31.96905708 1.94958305 C27.31602254 1.96925996 22.66303267 1.99343574 18.01003838 2.02099991 C16.30612886 2.03031211 14.60220959 2.03800794 12.89828491 2.04392815 C-0.40095097 0.96176002 -0.40095097 0.96176002 -11.9473877 4.24050903 C-14.28036203 4.28143841 -16.61443994 4.28292627 -18.9473877 4.24050903 C-13.15053393 0.37593986 -6.81166002 -0.05729245 0 0 Z " fill="#A0C29D" transform="translate(109.9473876953125,30.759490966796875)"/>
<path d="M0 0 C84.15 0.495 84.15 0.495 170 1 C170 1.33 170 1.66 170 2 C113.57 2.33 57.14 2.66 -1 3 C-0.67 2.01 -0.34 1.02 0 0 Z " fill="#398346" transform="translate(108,51)"/>
<path d="M0 0 C2 3 2 3 1.875 5.5625 C1 8 1 8 -0.875 9.375 C-3 10 -3 10 -6 9 C-6.10441406 9.58265625 -6.20882813 10.1653125 -6.31640625 10.765625 C-7.10293617 13.33645423 -8.17565891 14.7340058 -9.9375 16.75 C-10.46214844 17.36359375 -10.98679687 17.9771875 -11.52734375 18.609375 C-13 20 -13 20 -15 20 C-15.33 20.99 -15.66 21.98 -16 23 C-16.78375 23.763125 -17.5675 24.52625 -18.375 25.3125 C-21.13273521 27.8488231 -21.13273521 27.8488231 -22.5 31.125 C-24.24337046 34.46646005 -25.68164214 35.34082107 -29 37 C-29.99 37.66 -30.98 38.32 -32 39 C-32 39.99 -32 40.98 -32 42 C-33.32 42 -34.64 42 -36 42 C-35 40 -34 38 -33 36 C-32.34 36 -31.68 36 -31 36 C-31 35.34 -31 34.68 -31 34 C-30.34 34 -29.68 34 -29 34 C-28.78472656 33.46632813 -28.56945312 32.93265625 -28.34765625 32.3828125 C-26.50423156 29.12342392 -23.99986627 26.5718823 -21.4375 23.875 C-17.81366093 20.23596593 -17.81366093 20.23596593 -15 16 C-14.34 16 -13.68 16 -13 16 C-12.7525 15.443125 -12.505 14.88625 -12.25 14.3125 C-10.77075182 11.57589087 -9.06532561 9.32349131 -7 7 C-6.34 7 -5.68 7 -5 7 C-4.731875 6.401875 -4.46375 5.80375 -4.1875 5.1875 C-3.01506533 3.02775192 -1.80630718 1.64209744 0 0 Z " fill="#6FB665" transform="translate(389,307)"/>
<path d="M0 0 C13.36044574 -0.02315111 26.72088672 -0.04092926 40.08134842 -0.05181217 C46.28487099 -0.05703492 52.48837985 -0.06412159 58.69189453 -0.07543945 C64.6765125 -0.08628986 70.66111728 -0.09228143 76.64574432 -0.09487724 C78.93113157 -0.09672759 81.21651808 -0.10034076 83.50189972 -0.10573006 C86.69822257 -0.112969 89.8944906 -0.11398972 93.09082031 -0.11352539 C94.03956528 -0.11712067 94.98831024 -0.12071594 95.96580505 -0.12442017 C96.83796158 -0.1230455 97.7101181 -0.12167084 98.60870361 -0.12025452 C99.74250898 -0.12163721 99.74250898 -0.12163721 100.89921951 -0.12304783 C104.11703187 0.06542728 106.30751474 0.30751474 108.625 2.625 C111.11022349 6.91765876 112.82910557 12.02536658 112 17 C109.9765625 18.640625 109.9765625 18.640625 108 20 C108.05800781 19.19175781 108.11601562 18.38351563 108.17578125 17.55078125 C108.6180095 10.7190142 108.6180095 10.7190142 105.625 4.8125 C102.37959712 2.57162658 100.79296107 1.87537311 96.92514038 1.84178162 C96.07256149 1.8319928 95.2199826 1.82220398 94.34156799 1.81211853 C92.93571693 1.80348534 92.93571693 1.80348534 91.50146484 1.79467773 C90.51606216 1.78477814 89.53065948 1.77487854 88.51539612 1.76467896 C85.24726797 1.73300597 81.97912526 1.70828361 78.7109375 1.68359375 C76.44934707 1.66302923 74.18776054 1.6420329 71.92617798 1.62062073 C65.96511986 1.56534821 60.00402675 1.5159618 54.04290771 1.46777344 C47.9634692 1.41759619 41.88408166 1.36189044 35.8046875 1.30664062 C23.86983519 1.19899571 11.93493867 1.09756483 0 1 C0 0.67 0 0.34 0 0 Z " fill="#ACD9A5" transform="translate(138,127)"/>
<path d="M0 0 C2.76613036 4.14919554 3.13838151 6.07320768 3.20874023 11.03857422 C3.22803085 12.30684052 3.24732147 13.57510681 3.26719666 14.88180542 C3.28200129 16.27275577 3.29577511 17.66371743 3.30859375 19.0546875 C3.31516558 19.75394474 3.3217374 20.45320198 3.32850838 21.17364883 C3.36109434 24.8740461 3.38554852 28.57441462 3.4050293 32.27490234 C3.42285498 35.33847851 3.45769289 38.40113629 3.50756836 41.46435547 C3.56771371 45.16260577 3.59849603 48.86000354 3.60820198 52.55871964 C3.61676675 53.96780442 3.63561075 55.3768658 3.6649456 56.78567123 C3.88205821 67.80463995 3.88205821 67.80463995 1.69241333 70.77203369 C-0.46601351 72.28108297 -2.35722713 73 -5 73 C-5 73.66 -5 74.32 -5 75 C-7.97 75.99 -7.97 75.99 -11 77 C-11 76.34 -11 75.68 -11 75 C-10.34 75 -9.68 75 -9 75 C-8.79375 74.401875 -8.5875 73.80375 -8.375 73.1875 C-6.46262996 70.14509312 -4.27878733 69.33828054 -1 68 C-0.01 68 0.98 68 2 68 C1.9278125 67.08645752 1.855625 66.17291504 1.78125 65.23168945 C0.96823278 53.86850353 0.91326786 42.57522397 1 31.1875 C1.20792167 15.56334931 1.20792167 15.56334931 0 0 Z " fill="#3D7B4A" transform="translate(396,136)"/>
<path d="M0 0 C13.0650792 -0.09269069 26.13008014 -0.16376058 39.19542122 -0.20724869 C45.26223492 -0.22812109 51.32882361 -0.25643301 57.39550781 -0.30175781 C63.25047898 -0.34522702 69.10523376 -0.36913972 74.96035385 -0.37950897 C77.19388104 -0.38689833 79.42739641 -0.40132799 81.66083145 -0.42292023 C84.78993552 -0.45196775 87.91814603 -0.45595534 91.04736328 -0.45410156 C91.97021622 -0.46848267 92.89306915 -0.48286377 93.84388733 -0.49768066 C99.53462826 -0.46121376 102.59021926 0.34375464 107 4 C105.68 4.33 104.36 4.66 103 5 C102.505 3.515 102.505 3.515 102 2 C68.34 1.67 34.68 1.34 0 1 C0 0.67 0 0.34 0 0 Z " fill="#4E955B" transform="translate(138,128)"/>
<path d="M0 0 C0 0.66 0 1.32 0 2 C-0.99 2.33 -1.98 2.66 -3 3 C-4.315213 5.14587384 -5 6.47013105 -5 9 C-5.556875 9.226875 -6.11375 9.45375 -6.6875 9.6875 C-12.7403088 13.12287797 -15.91111063 18.36851735 -18.5 24.625 C-19.78539301 27.51713427 -20.59632522 29.05416804 -23 31 C-22.67422369 23.83292123 -19.34556372 18.23072876 -16 12 C-15.34 12 -14.68 12 -14 12 C-13.7525 11.41605469 -13.505 10.83210938 -13.25 10.23046875 C-11.81544436 7.67068353 -10.23295714 6.20476699 -8 4.3125 C-7.29875 3.71050781 -6.5975 3.10851563 -5.875 2.48828125 C-3.78952321 0.83293405 -2.68454235 0 0 0 Z " fill="#699D70" transform="translate(91,35)"/>
<path d="M0 0 C0.92587342 2.49985823 1.06738643 3.77004857 0.30859375 6.359375 C-1.22314015 9.45027684 -3.03398558 11.22879889 -5.5625 13.5625 C-8.56639896 16.33569952 -10.29562137 17.94764884 -11 22 C-11.9793879 23.02019573 -12.97895449 24.02149805 -14 25 C-14.33 25.99 -14.66 26.98 -15 28 C-17.5625 29.1875 -17.5625 29.1875 -20 30 C-17.7988353 23.93519044 -14.12321591 18.98010417 -10.5 13.6875 C-9.81035156 12.66076172 -9.12070312 11.63402344 -8.41015625 10.57617188 C-7.74886719 9.60615234 -7.08757812 8.63613281 -6.40625 7.63671875 C-5.80103516 6.74686279 -5.19582031 5.85700684 -4.57226562 4.94018555 C-4.05341797 4.29992432 -3.53457031 3.65966309 -3 3 C-2.34 3 -1.68 3 -1 3 C-0.67 2.01 -0.34 1.02 0 0 Z " fill="#6AB661" transform="translate(343,360)"/>
<path d="M0 0 C0.33 0 0.66 0 1 0 C1.0270043 1.45823212 1.04639787 2.91660675 1.0625 4.375 C1.07410156 5.18710937 1.08570313 5.99921875 1.09765625 6.8359375 C1 9 1 9 0 11 C-0.66 11 -1.32 11 -2 11 C-2.33951619 12.56116819 -2.67132544 14.12401338 -3 15.6875 C-3.185625 16.55761719 -3.37125 17.42773438 -3.5625 18.32421875 C-3.98974157 20.93725873 -4.00448257 23.35976422 -4 26 C-4.9375 28.125 -4.9375 28.125 -6 30 C-6.33 30.99 -6.66 31.98 -7 33 C-8.485 33.495 -8.485 33.495 -10 34 C-10.33 34.66 -10.66 35.32 -11 36 C-9.44435164 28.0764504 -6.97360331 20.57495755 -4.375 12.9375 C-3.95476562 11.69033203 -3.53453125 10.44316406 -3.1015625 9.15820312 C-2.07181153 6.10405535 -1.03786449 3.05139815 0 0 Z " fill="#89C37B" transform="translate(302,433)"/>
<path d="M0 0 C0.33 0 0.66 0 1 0 C1.31982845 7.86701162 0.48077578 14.91153257 -1.3125 22.5625 C-1.52583984 23.52607422 -1.73917969 24.48964844 -1.95898438 25.48242188 C-3.37317842 31.74286895 -5.07388915 37.87846646 -7 44 C-7.33 44 -7.66 44 -8 44 C-8.20465296 38.7813494 -8.16128993 34.83111866 -6 30 C-5.6186926 27.67402489 -5.27539746 25.34087842 -5 23 C-4.34 23 -3.68 23 -3 23 C-2.95101563 22.09378906 -2.90203125 21.18757813 -2.8515625 20.25390625 C-2.42420873 13.29098709 -1.74718596 6.75578571 0 0 Z " fill="#87C079" transform="translate(476,291)"/>
<path d="M0 0 C0.33 0 0.66 0 1 0 C2.25320312 10.9431487 3.19503306 21.78975262 3.1875 32.8125 C3.18814453 33.71178223 3.18878906 34.61106445 3.18945312 35.53759766 C3.1463093 40.77270905 2.75220334 45.81882339 2 51 C1.67 51 1.34 51 1 51 C0.25563141 33.99038594 -0.15224767 17.02597388 0 0 Z " fill="#9CCD8B" transform="translate(476,239)"/>
<path d="M0 0 C0.66 0 1.32 0 2 0 C2.33 18.48 2.66 36.96 3 56 C5.31 56 7.62 56 10 56 C8.3125 58 8.3125 58 6 60 C4.35 60 2.7 60 1 60 C0.67 40.2 0.34 20.4 0 0 Z " fill="#62A76D" transform="translate(375,157)"/>
<path d="M0 0 C-0.50522222 4.37859255 -3.17827222 6.81651224 -6 10 C-6.99 9.67 -7.98 9.34 -9 9 C-9.86625 9.495 -9.86625 9.495 -10.75 10 C-14.01439983 11.45084437 -16.56844494 10.65991443 -20 10 C-18.10060262 8.10060262 -16.73748786 7.24004931 -14.375 6.0546875 C-13.66859375 5.70019531 -12.9621875 5.34570312 -12.234375 4.98046875 C-11.49703125 4.61566406 -10.7596875 4.25085938 -10 3.875 C-9.26265625 3.50246094 -8.5253125 3.12992188 -7.765625 2.74609375 C-2.2533196 0 -2.2533196 0 0 0 Z " fill="#5EB458" transform="translate(394,221)"/>
<path d="M0 0 C0.99 0.99 0.99 0.99 2 2 C1.67 2.99 1.34 3.98 1 5 C0.505 4.505 0.505 4.505 0 4 C-1.96287766 3.87636703 -3.93015158 3.8220456 -5.89672852 3.79467773 C-7.15796036 3.77473251 -8.4191922 3.75478729 -9.71864319 3.73423767 C-11.10539627 3.71725205 -12.49215066 3.70037329 -13.87890625 3.68359375 C-15.2899589 3.66303074 -16.70100529 3.64203445 -18.11204529 3.62062073 C-21.8323359 3.56533245 -25.55268273 3.51595314 -29.27307129 3.46777344 C-33.06686425 3.41760758 -36.86057523 3.36189592 -40.65429688 3.30664062 C-48.10279523 3.19897649 -55.55136159 3.09755003 -63 3 C-63 2.67 -63 2.34 -63 2 C-62.22547989 1.98969254 -61.45095978 1.97938507 -60.65296936 1.96876526 C-53.36871079 1.87095703 -46.08454054 1.76846689 -38.80042362 1.66066074 C-35.05521202 1.60539769 -31.30999266 1.55197245 -27.56469727 1.50268555 C-23.95311414 1.45509165 -20.34162868 1.40275094 -16.73016167 1.34705925 C-15.34942481 1.32661306 -13.96866114 1.30790378 -12.58787727 1.29092598 C-10.66016686 1.2669322 -8.73254251 1.23629736 -6.80493164 1.20532227 C-5.15612755 1.18200584 -5.15612755 1.18200584 -3.47401428 1.15821838 C-1.05693927 1.27711808 -1.05693927 1.27711808 0 0 Z " fill="#54945B" transform="translate(373,152)"/>
<path d="M0 0 C0.99 0 1.98 0 3 0 C3.6987693 1.76641683 4.38366583 3.53832664 5.0625 5.3125 C5.44535156 6.29863281 5.82820313 7.28476563 6.22265625 8.30078125 C7 11 7 11 6 14 C5.34 13.67 4.68 13.34 4 13 C4 12.01 4 11.02 4 10 C2.35 10.33 0.7 10.66 -1 11 C-0.34 9.35 0.32 7.7 1 6 C-1.64 6.33 -4.28 6.66 -7 7 C-4.66666667 4.66666667 -2.33333333 2.33333333 0 0 Z " fill="#72B768" transform="translate(459,179)"/>
<path d="M0 0 C0.33 0.99 0.66 1.98 1 3 C0.45730469 3.39832031 -0.08539063 3.79664063 -0.64453125 4.20703125 C-1.35996094 4.73683594 -2.07539063 5.26664063 -2.8125 5.8125 C-3.87404297 6.59560547 -3.87404297 6.59560547 -4.95703125 7.39453125 C-6.9834555 8.90739127 -6.9834555 8.90739127 -8.48046875 10.55859375 C-10.33715639 12.31982187 -12.1675441 13.2081697 -14.5 14.25 C-15.66015625 14.78367188 -15.66015625 14.78367188 -16.84375 15.328125 C-19 16 -19 16 -22 15 C-21.00033203 14.38125 -21.00033203 14.38125 -19.98046875 13.75 C-13.10358911 9.44112996 -6.50800129 4.84638394 0 0 Z " fill="#81BE72" transform="translate(451,186)"/>
<path d="M0 0 C0 0.66 0 1.32 0 2 C-0.99 2.33 -1.98 2.66 -3 3 C-4.23223345 4.52407821 -5.46335747 6.04913728 -6.6796875 7.5859375 C-8.49768433 9.53302286 -10.52994164 10.07372812 -13 11 C-13.825 11.845625 -14.65 12.69125 -15.5 13.5625 C-18.14172341 16.13818033 -19.3996619 16.69139959 -23 17 C-6.48571429 0 -6.48571429 0 0 0 Z " fill="#70B964" transform="translate(334,253)"/>
<path d="M0 0 C0.99 0.33 1.98 0.66 3 1 C2.50628906 1.62648438 2.01257813 2.25296875 1.50390625 2.8984375 C0.86324219 3.71570313 0.22257812 4.53296875 -0.4375 5.375 C-1.07558594 6.18710937 -1.71367187 6.99921875 -2.37109375 7.8359375 C-4.02223547 9.89398106 -4.02223547 9.89398106 -5 12 C-5.66 12 -6.32 12 -7 12 C-7.2475 12.680625 -7.495 13.36125 -7.75 14.0625 C-9.24197908 17.56865083 -11.06835511 20.71620368 -13 24 C-14.125 20.25 -14.125 20.25 -13 18 C-12.34 18 -11.68 18 -11 18 C-11 16.35 -11 14.7 -11 13 C-10.01 12.67 -9.02 12.34 -8 12 C-8 11.01 -8 10.02 -8 9 C-6.68 8.67 -5.36 8.34 -4 8 C-4 7.01 -4 6.02 -4 5 C-3.34 5 -2.68 5 -2 5 C-2 4.01 -2 3.02 -2 2 C-1.34 2 -0.68 2 0 2 C0 1.34 0 0.68 0 0 Z " fill="#8FC67F" transform="translate(321,366)"/>
<path d="M0 0 C0 0.66 0 1.32 0 2 C-6.10797151 6.71451793 -13.43692857 11.16652814 -21 13 C-23.28515625 12.59375 -23.28515625 12.59375 -25 12 C-24.09378906 11.55269531 -23.18757813 11.10539063 -22.25390625 10.64453125 C-15.96666509 7.52769798 -9.73375263 4.39134787 -3.671875 0.84765625 C-2 0 -2 0 0 0 Z " fill="#91C67E" transform="translate(419,208)"/>
<path d="M0 0 C-1.34684007 4.04052022 -3.44847477 4.77159201 -7 7 C-7.7425 7.5775 -8.485 8.155 -9.25 8.75 C-11 10 -11 10 -13 10 C-13 10.66 -13 11.32 -13 12 C-14.8125 13.6875 -14.8125 13.6875 -17 15 C-17.99 14.67 -18.98 14.34 -20 14 C-18.6875 12.5 -18.6875 12.5 -17 11 C-16.01 11 -15.02 11 -14 11 C-14 10.01 -14 9.02 -14 8 C-13.01 8 -12.02 8 -11 8 C-11 6.68 -11 5.36 -11 4 C-9.88625 3.525625 -8.7725 3.05125 -7.625 2.5625 C-1.68 0 -1.68 0 0 0 Z " fill="#84C27A" transform="translate(390,303)"/>
<path d="M0 0 C0.33 0.66 0.66 1.32 1 2 C-1.05788222 6.15161605 -3.96117535 9.40058613 -7.0625 12.8125 C-7.94035156 13.78832031 -8.81820313 14.76414062 -9.72265625 15.76953125 C-12 18 -12 18 -14 18 C-12.49853841 12.95394871 -9.43322694 9.89020251 -5.875 6.1875 C-5.03001953 5.2912793 -5.03001953 5.2912793 -4.16796875 4.37695312 C-2.7850002 2.91194406 -1.39335215 1.45513688 0 0 Z " fill="#6AB761" transform="translate(297,282)"/>
<path d="M0 0 C0.99 0 1.98 0 3 0 C3.99 4.62 4.98 9.24 6 14 C6.99 14 7.98 14 9 14 C9 15.32 9 16.64 9 18 C7.171875 17.859375 7.171875 17.859375 5 17 C3.515625 14.453125 3.515625 14.453125 2.25 11.25 C1.82203125 10.20328125 1.3940625 9.1565625 0.953125 8.078125 C0.05205896 5.16812485 -0.20109604 3.01644053 0 0 Z " fill="#86BD7C" transform="translate(264,457)"/>
<path d="M0 0 C1.32 0.66 2.64 1.32 4 2 C3.67 2.66 3.34 3.32 3 4 C2.34 4 1.68 4 1 4 C0.74476563 4.57234375 0.48953125 5.1446875 0.2265625 5.734375 C-1.13087159 8.24173733 -2.71974104 10.1330456 -4.625 12.25 C-5.25664062 12.95640625 -5.88828125 13.6628125 -6.5390625 14.390625 C-7.02117187 14.92171875 -7.50328125 15.4528125 -8 16 C-9.13583456 12.28272326 -8.66670026 10.52948291 -7 7 C-6.67 7.66 -6.34 8.32 -6 9 C-5.34 9 -4.68 9 -4 9 C-3.67 7.35 -3.34 5.7 -3 4 C-2.01 3.67 -1.02 3.34 0 3 C0 2.01 0 1.02 0 0 Z " fill="#86C67D" transform="translate(339,342)"/>
<path d="M0 0 C-1.39633107 3.18559952 -3.04557493 5.23943845 -5.5625 7.625 C-8.14015389 10.04521959 -8.14015389 10.04521959 -10 13 C-10.66 13 -11.32 13 -12 13 C-12.33 13.66 -12.66 14.32 -13 15 C-13.33 14.34 -13.66 13.68 -14 13 C-10.25 7.125 -10.25 7.125 -8 6 C-7.690625 5.360625 -7.38125 4.72125 -7.0625 4.0625 C-5.34770528 0.73378083 -3.66958772 0 0 0 Z " fill="#88CA7E" transform="translate(314,465)"/>
<path d="M0 0 C1.80597656 0.01353516 1.80597656 0.01353516 3.6484375 0.02734375 C6.5991679 0.05076225 9.54947689 0.08356007 12.5 0.125 C12.5 0.455 12.5 0.785 12.5 1.125 C11.66190796 1.16258423 11.66190796 1.16258423 10.80688477 1.20092773 C8.22527572 1.31843105 5.64389764 1.4404438 3.0625 1.5625 C2.18400391 1.60181641 1.30550781 1.64113281 0.40039062 1.68164062 C-9.18871504 1.41928778 -9.18871504 1.41928778 -17.5 4.125 C-19.83297433 4.16592937 -22.16705225 4.16741723 -24.5 4.125 C-17.05672315 -0.83718457 -8.61440118 -0.12306287 0 0 Z " fill="#A2C39E" transform="translate(115.5,30.875)"/>
<path d="M0 0 C0.99 0 1.98 0 3 0 C0.60309494 7.44302097 -2.15262441 14.71837152 -5 22 C-5.33 22 -5.66 22 -6 22 C-5.91256669 20.08249714 -5.8043811 18.16593335 -5.6875 16.25 C-5.62949219 15.18265625 -5.57148438 14.1153125 -5.51171875 13.015625 C-4.96611615 9.80031806 -4.26948342 8.30870906 -2 6 C-1.34 6 -0.68 6 0 6 C0 4.02 0 2.04 0 0 Z " fill="#87C17A" transform="translate(290,417)"/>
<path d="M0 0 C1.62933703 3.25867406 2.67205379 5.96742819 3.625 9.4375 C3.88539063 10.36433594 4.14578125 11.29117188 4.4140625 12.24609375 C4.98381204 14.92391659 5.10889863 17.27258425 5 20 C4.34 20 3.68 20 3 20 C2.67 19.01 2.34 18.02 2 17 C1.34 16.67 0.68 16.34 0 16 C0 10.72 0 5.44 0 0 Z " fill="#89C27E" transform="translate(466,193)"/>
<path d="M0 0 C0.33 0 0.66 0 1 0 C1.33 3.3 1.66 6.6 2 10 C5.34252724 10.07427838 7.8035914 10.06546953 11 9 C10.34 10.32 9.68 11.64 9 13 C5.7 13 2.4 13 -1 13 C-1.125 3.375 -1.125 3.375 0 0 Z " fill="#89C27B" transform="translate(290,471)"/>
<path d="M0 0 C2.97 0.33 5.94 0.66 9 1 C6.0716873 2.95220847 3.13685675 4.5335065 0 6.125 C-1.5778125 6.93324219 -1.5778125 6.93324219 -3.1875 7.7578125 C-6 9 -6 9 -9 9 C-8.375 7.0625 -8.375 7.0625 -7 5 C-3.875 4.25 -3.875 4.25 -1 4 C-0.67 2.68 -0.34 1.36 0 0 Z " fill="#93C785" transform="translate(339,444)"/>
<path d="M0 0 C0.99 0.33 1.98 0.66 3 1 C-0.3 7.27 -3.6 13.54 -7 20 C-7.33 20 -7.66 20 -8 20 C-8.25 14.375 -8.25 14.375 -6 11 C-5.34 11 -4.68 11 -4 11 C-3.67 9.02 -3.34 7.04 -3 5 C-2.34 5 -1.68 5 -1 5 C-0.67 3.35 -0.34 1.7 0 0 Z " fill="#8EC481" transform="translate(304,390)"/>
<path d="M0 0 C0.33 0 0.66 0 1 0 C1.24979445 1.91408757 1.47408014 3.83151611 1.6875 5.75 C1.81511719 6.81734375 1.94273437 7.8846875 2.07421875 8.984375 C1.98742093 12.51110743 1.20378738 13.36409745 -1 16 C-1.77314488 18.34255937 -1.77314488 18.34255937 -2.1875 20.75 C-2.34605469 21.54921875 -2.50460937 22.3484375 -2.66796875 23.171875 C-2.77753906 23.77515625 -2.88710938 24.3784375 -3 25 C-3.33 25 -3.66 25 -4 25 C-4.21908649 18.97512156 -3.49398047 13.82450494 -2 8 C-1.80921875 7.22527344 -1.6184375 6.45054687 -1.421875 5.65234375 C-0.95615457 3.76617601 -0.47925183 1.88277506 0 0 Z " fill="#7BC070" transform="translate(259,347)"/>
<path d="M0 0 C1 2 1 2 0.546875 3.83984375 C0.28390625 4.53207031 0.0209375 5.22429687 -0.25 5.9375 C-0.50265625 6.62714844 -0.7553125 7.31679688 -1.015625 8.02734375 C-2.07365349 10.14759925 -3.32645884 11.34895267 -5 13 C-5.33 13.99 -5.66 14.98 -6 16 C-8.5625 17.1875 -8.5625 17.1875 -11 18 C-9.48103632 13.56829827 -7.07360191 9.96975924 -4.375 6.1875 C-3.95476562 5.59001953 -3.53453125 4.99253906 -3.1015625 4.37695312 C-2.07220272 2.91479435 -1.0367177 1.45695101 0 0 Z " fill="#93C782" transform="translate(334,372)"/>
<path d="M0 0 C0.66 0.33 1.32 0.66 2 1 C2.56862745 10.66666667 2.56862745 10.66666667 -1 15 C-4.4137931 18 -4.4137931 18 -7 18 C-6.67 16.68 -6.34 15.36 -6 14 C-5.34 14 -4.68 14 -4 14 C-1.58976204 12.25629698 -1.04862715 11.25649894 -0.48828125 8.30078125 C-0.43027344 7.31464844 -0.37226563 6.32851562 -0.3125 5.3125 C-0.24675781 4.31863281 -0.18101562 3.32476562 -0.11328125 2.30078125 C-0.07589844 1.54152344 -0.03851563 0.78226563 0 0 Z " fill="#448C52" transform="translate(322,198)"/>
<path d="M0 0 C1.485 0.99 1.485 0.99 3 2 C3 2.99 3 3.98 3 5 C3.556875 5.226875 4.11375 5.45375 4.6875 5.6875 C9.44623886 8.38840584 12.36260685 11.79011272 14 17 C9.48466951 14.67783003 6.98944499 12.01439755 4 8 C4 7.34 4 6.68 4 6 C3.34 6 2.68 6 2 6 C1.34 4.02 0.68 2.04 0 0 Z " fill="#74A87D" transform="translate(71,409)"/>
<path d="M0 0 C0.66 0.33 1.32 0.66 2 1 C-1.00064027 6.63098876 -4.18786361 11.88084541 -8 17 C-10 14 -10 14 -10 12 C-9.01 12 -8.02 12 -7 12 C-6.67 11.01 -6.34 10.02 -6 9 C-5.34 9 -4.68 9 -4 9 C-4 7.68 -4 6.36 -4 5 C-3.34 5 -2.68 5 -2 5 C-1.855625 4.360625 -1.71125 3.72125 -1.5625 3.0625 C-1 1 -1 1 0 0 Z " fill="#81BD72" transform="translate(455,359)"/>
<path d="M0 0 C0.20375803 3.6676445 -0.19548715 5.81556555 -2 9 C-2.33 9.99 -2.66 10.98 -3 12 C-3.99 12.33 -4.98 12.66 -6 13 C-6.33 13.66 -6.66 14.32 -7 15 C-4.91881919 4.83763838 -4.91881919 4.83763838 -3 1 C-1 0 -1 0 0 0 Z " fill="#6EB662" transform="translate(298,454)"/>
<path d="M0 0 C0.33 0 0.66 0 1 0 C1.49940808 6.11774896 0.24900602 9.02495953 -3 14 C-3.99 14 -4.98 14 -6 14 C-4.50829734 9.0276578 -2.39542583 4.58154261 0 0 Z " fill="#7EBD74" transform="translate(314,406)"/>
<path d="M0 0 C2 3 2 3 1.875 5.5625 C1 8 1 8 -1.0625 9.3125 C-1.701875 9.539375 -2.34125 9.76625 -3 10 C-4 9 -4 9 -4.3125 6.6875 C-3.91080481 3.23292134 -2.60100327 2.19459651 0 0 Z " fill="#6FBA5D" transform="translate(389,307)"/>
<path d="M0 0 C-5.75 4 -5.75 4 -8 4 C-8 4.66 -8 5.32 -8 6 C-9.98 6.66 -11.96 7.32 -14 8 C-14 7.34 -14 6.68 -14 6 C-13.34 6 -12.68 6 -12 6 C-11.79375 5.401875 -11.5875 4.80375 -11.375 4.1875 C-8.79308636 0.07991012 -4.60433541 -1.94798806 0 0 Z " fill="#629E6D" transform="translate(399,205)"/>
<path d="M0 0 C0.99 0.33 1.98 0.66 3 1 C2.04956626 2.33897583 1.08940853 3.67105427 0.125 5 C-0.40867187 5.7425 -0.94234375 6.485 -1.4921875 7.25 C-1.98976563 7.8275 -2.48734375 8.405 -3 9 C-3.66 9 -4.32 9 -5 9 C-5.66 10.32 -6.32 11.64 -7 13 C-8 10 -8 10 -6.875 7.625 C-4.82957869 4.76141017 -2.55306054 2.41505726 0 0 Z " fill="#82BD76" transform="translate(441,379)"/>
<path d="M0 0 C2.3765323 3.56479845 2.565955 4.79576285 2 9 C0.64013208 11.6046701 -0.86594768 13.96814174 -3 16 C-3.99 16 -4.98 16 -6 16 C-5.67 15.01 -5.34 14.02 -5 13 C-4.34 13 -3.68 13 -3 13 C-3 12.01 -3 11.02 -3 10 C-2.01 10 -1.02 10 0 10 C0 6.7 0 3.4 0 0 Z " fill="#4B9057" transform="translate(246,262)"/>
<path d="M0 0 C0.33 0 0.66 0 1 0 C1 1.98 1 3.96 1 6 C1.66 6 2.32 6 3 6 C3.42317708 8.01822917 3.84635417 10.03645833 4.26953125 12.0546875 C4.92308838 14.37046549 4.92308838 14.37046549 8 16 C7.34 16.33 6.68 16.66 6 17 C1.125 13.375 1.125 13.375 0 10 C-0.06802967 8.27204648 -0.08495645 6.54164635 -0.0625 4.8125 C-0.05347656 3.91144531 -0.04445312 3.01039063 -0.03515625 2.08203125 C-0.02355469 1.39496094 -0.01195312 0.70789063 0 0 Z " fill="#428D51" transform="translate(129,135)"/>
<path d="M0 0 C0 0.66 0 1.32 0 2 C-0.99 2.33 -1.98 2.66 -3 3 C-4.315213 5.14587384 -5 6.47013105 -5 9 C-7.31 9 -9.62 9 -12 9 C-9.14880426 5.05219051 -5.28603137 0 0 0 Z " fill="#75A77C" transform="translate(91,35)"/>
<path d="M0 0 C0.99 0.33 1.98 0.66 3 1 C2.21654285 2.17219543 1.42297164 3.33763668 0.625 4.5 C0.18414062 5.1496875 -0.25671875 5.799375 -0.7109375 6.46875 C-1.13632812 6.9740625 -1.56171875 7.479375 -2 8 C-2.66 8 -3.32 8 -4 8 C-4.28875 8.78375 -4.5775 9.5675 -4.875 10.375 C-6 13 -6 13 -8 15 C-8.33 14.01 -8.66 13.02 -9 12 C-8.34 12 -7.68 12 -7 12 C-6.34 10.02 -5.68 8.04 -5 6 C-4.34 6 -3.68 6 -3 6 C-2.690625 5.195625 -2.38125 4.39125 -2.0625 3.5625 C-1 1 -1 1 0 0 Z " fill="#B1E09F" transform="translate(285,292)"/>
<path d="M0 0 C0.33 0.66 0.66 1.32 1 2 C0 5 0 5 -2.875 6.6875 C-6 8 -6 8 -9 8 C-6.80528594 3.48864333 -4.58826282 1.93726652 0 0 Z " fill="#7DC170" transform="translate(399,298)"/>
<path d="M0 0 C0.66 0 1.32 0 2 0 C1.57835981 1.98260599 1.13721222 3.96107245 0.6875 5.9375 C0.44386719 7.03964844 0.20023437 8.14179688 -0.05078125 9.27734375 C-0.36402344 10.17582031 -0.67726563 11.07429688 -1 12 C-1.99 12.33 -2.98 12.66 -4 13 C-3.71517632 11.58194169 -3.42181856 10.16559621 -3.125 8.75 C-2.96257812 7.96109375 -2.80015625 7.1721875 -2.6328125 6.359375 C-2.00849925 4.03168856 -1.15161458 2.10968048 0 0 Z " fill="#84C17A" transform="translate(282,439)"/>
<path d="M0 0 C1.32 0 2.64 0 4 0 C4 0.66 4 1.32 4 2 C5.65 1.67 7.3 1.34 9 1 C9.33 1.99 9.66 2.98 10 4 C12.01508358 4.73323796 12.01508358 4.73323796 14 5 C14 5.66 14 6.32 14 7 C8.547001 5.43181728 4.23513217 3.96189783 0 0 Z " fill="#609A6A" transform="translate(85,426)"/>
<path d="M0 0 C2 1.8125 2 1.8125 4 4 C4 4.99 4 5.98 4 7 C4.99 7.33 5.98 7.66 7 8 C7 9.65 7 11.3 7 13 C6.34 13 5.68 13 5 13 C3.5 10.75 3.5 10.75 2 8 C1.608125 7.319375 1.21625 6.63875 0.8125 5.9375 C0 4 0 4 0 0 Z " fill="#488858" transform="translate(69,401)"/>
<path d="M0 0 C1.43088528 2.86177057 0.59991697 4.93375773 0 8 C-1.98 8.33 -3.96 8.66 -6 9 C-6 9.66 -6 10.32 -6 11 C-6.66 11 -7.32 11 -8 11 C-6.63629701 8.00779732 -5.05091917 5.70973471 -2.875 3.25 C-2.33617187 2.63640625 -1.79734375 2.0228125 -1.2421875 1.390625 C-0.62730469 0.70226562 -0.62730469 0.70226562 0 0 Z " fill="#82C275" transform="translate(352,349)"/>
<path d="M0 0 C0.33 1.32 0.66 2.64 1 4 C0.34 4 -0.32 4 -1 4 C-1.061875 4.598125 -1.12375 5.19625 -1.1875 5.8125 C-2.3236757 8.87143458 -4.17330142 9.55041099 -7 11 C-7 6.68381834 -4.86729652 5.07210341 -2 2 C-1.34 2 -0.68 2 0 2 C0 1.34 0 0.68 0 0 Z " fill="#87C278" transform="translate(384,312)"/>
<path d="M0 0 C-1.45659799 2.91319598 -3.3461589 3.01711259 -6.375 4.0625 C-7.35210937 4.40410156 -8.32921875 4.74570313 -9.3359375 5.09765625 C-11.22233089 5.73659595 -13.11054199 6.37018066 -15 7 C-14.5 5.1875 -14.5 5.1875 -13 3 C-8.85374088 0.77313274 -4.73081322 -0.44351374 0 0 Z " fill="#AADB99" transform="translate(374,231)"/>
<path d="M0 0 C1.32 0.33 2.64 0.66 4 1 C2.60667426 4.36720387 1.0210714 5.9859524 -2 8 C-2.66 7.67 -3.32 7.34 -4 7 C-3.67 5.68 -3.34 4.36 -3 3 C-2.34 3 -1.68 3 -1 3 C-0.67 2.01 -0.34 1.02 0 0 Z " fill="#4D925D" transform="translate(78,44)"/>
<path d="M0 0 C0.33 0.99 0.66 1.98 1 3 C-3.27152492 6.95897432 -6.31251115 8.74875245 -12 10 C-8.40945767 6.11024581 -4.26101118 3.10267805 0 0 Z " fill="#8FC281" transform="translate(451,186)"/>
<path d="M0 0 C0.66 0.66 1.32 1.32 2 2 C0.7636832 2.89422914 -0.48971562 3.76487891 -1.75 4.625 C-2.44609375 5.11226563 -3.1421875 5.59953125 -3.859375 6.1015625 C-6 7 -6 7 -8.265625 6.1484375 C-8.83796875 5.76945312 -9.4103125 5.39046875 -10 5 C-8.68 5 -7.36 5 -6 5 C-6 4.34 -6 3.68 -6 3 C-4.02 2.01 -2.04 1.02 0 0 Z " fill="#81C074" transform="translate(393,422)"/>
<path d="M0 0 C3.625 0.375 3.625 0.375 7 1 C5.37660195 2.70884005 3.70680947 4.37446717 2 6 C1.34 6 0.68 6 0 6 C0 5.01 0 4.02 0 3 C-0.66 2.67 -1.32 2.34 -2 2 C-1.34 1.34 -0.68 0.68 0 0 Z " fill="#72BE6A" transform="translate(404,411)"/>
<path d="M0 0 C0.33 0 0.66 0 1 0 C1 1.65 1 3.3 1 5 C0.34 5 -0.32 5 -1 5 C-1.33 6.32 -1.66 7.64 -2 9 C-2.66 9 -3.32 9 -4 9 C-4 10.32 -4 11.64 -4 13 C-4.99 13.33 -5.98 13.66 -7 14 C-5.56032356 8.76481294 -3.18303389 4.36973991 0 0 Z " fill="#97C888" transform="translate(322,391)"/>
<path d="M0 0 C0.66 0.33 1.32 0.66 2 1 C0.4198632 3.15473199 -1.10646634 5.10646634 -3 7 C-6.625 6.625 -6.625 6.625 -10 6 C-8.0331974 4.0331974 -6.4555341 3.0628363 -4 1.8125 C-3.29875 1.44769531 -2.5975 1.08289063 -1.875 0.70703125 C-1.25625 0.47371094 -0.6375 0.24039063 0 0 Z " fill="#7FBF75" transform="translate(384,225)"/>
<path d="M0 0 C0.66 0.66 1.32 1.32 2 2 C-2.75 6 -2.75 6 -5 6 C-5 6.66 -5 7.32 -5 8 C-5.66 8 -6.32 8 -7 8 C-6.875 5.6875 -6.875 5.6875 -6 3 C-2.9375 1.1875 -2.9375 1.1875 0 0 Z " fill="#8CC27E" transform="translate(323,456)"/>
<path d="M0 0 C0.66 0.99 1.32 1.98 2 3 C1.175 3.598125 0.35 4.19625 -0.5 4.8125 C-1.7375 5.8953125 -1.7375 5.8953125 -3 7 C-3 7.99 -3 8.98 -3 10 C-4.32 10 -5.64 10 -7 10 C-6 8 -5 6 -4 4 C-3.34 4 -2.68 4 -2 4 C-2 3.34 -2 2.68 -2 2 C-1.34 2 -0.68 2 0 2 C0 1.34 0 0.68 0 0 Z " fill="#82C277" transform="translate(360,339)"/>
<path d="M0 0 C0.99 0.33 1.98 0.66 3 1 C2.01 2.98 1.02 4.96 0 7 C-1.32 7 -2.64 7 -4 7 C-3.43628586 3.73045798 -2.50037734 2.17424117 0 0 Z " fill="#6FB663" transform="translate(365,334)"/>
<path d="M0 0 C0.66 0.33 1.32 0.66 2 1 C0.68 5.95 -0.64 10.9 -2 16 C-2.33 16 -2.66 16 -3 16 C-2.88590318 13.89521396 -2.75834639 11.79115423 -2.625 9.6875 C-2.55539062 8.51574219 -2.48578125 7.34398437 -2.4140625 6.13671875 C-2 3 -2 3 0 0 Z " fill="#B2E1A1" transform="translate(260,340)"/>
<path d="M0 0 C0.66 0 1.32 0 2 0 C2 0.66 2 1.32 2 2 C1.34 2 0.68 2 0 2 C-0.0825 2.5775 -0.165 3.155 -0.25 3.75 C-1.20531013 6.6159304 -2.78469173 7.9990764 -5 10 C-5.33 9.34 -5.66 8.68 -6 8 C-2.25 2.25 -2.25 2.25 0 0 Z " fill="#96CB94" transform="translate(98,58)"/>
<path d="M0 0 C0.33 0 0.66 0 1 0 C1.29162929 4.95769796 1.12940055 8.02806853 -2 12 C-2.66 12 -3.32 12 -4 12 C-2.66666667 8 -1.33333333 4 0 0 Z " fill="#92C982" transform="translate(307,420)"/>
<path d="M0 0 C0.99 0.33 1.98 0.66 3 1 C0.69 3.31 -1.62 5.62 -4 8 C-4.33 6.68 -4.66 5.36 -5 4 C-2.6875 1.9375 -2.6875 1.9375 0 0 Z " fill="#7DBC71" transform="translate(430,392)"/>
<path d="M0 0 C0.99 0 1.98 0 3 0 C3.33 1.65 3.66 3.3 4 5 C3.67 4.34 3.34 3.68 3 3 C1.02463255 3.34786708 1.02463255 3.34786708 -1 4 C-1.33 4.66 -1.66 5.32 -2 6 C-4.5625 6.625 -4.5625 6.625 -7 7 C-4.66666667 4.66666667 -2.33333333 2.33333333 0 0 Z " fill="#A1CC93" transform="translate(459,179)"/>
<path d="M0 0 C-1.12073862 0.83905565 -2.24674547 1.67107831 -3.375 2.5 C-4.00148438 2.9640625 -4.62796875 3.428125 -5.2734375 3.90625 C-7 5 -7 5 -9 5 C-9 4.01 -9 3.02 -9 2 C-8.34 2 -7.68 2 -7 2 C-7 1.34 -7 0.68 -7 0 C-3.86650268 -1.04449911 -3.01031744 -0.93423645 0 0 Z " fill="#7AB76D" transform="translate(404,418)"/>
<path d="M0 0 C1.18414294 3.55242882 0.69535532 4.69830562 -0.4375 8.1875 C-0.72496094 9.08855469 -1.01242187 9.98960937 -1.30859375 10.91796875 C-1.53675781 11.60503906 -1.76492188 12.29210937 -2 13 C-2.33 13 -2.66 13 -3 13 C-3.0270043 11.54176788 -3.04639787 10.08339325 -3.0625 8.625 C-3.07410156 7.81289063 -3.08570313 7.00078125 -3.09765625 6.1640625 C-3 4 -3 4 -2 2 C-1.34 2 -0.68 2 0 2 C0 1.34 0 0.68 0 0 Z " fill="#8FC785" transform="translate(471,322)"/>
<path d="M0 0 C0.66 0.33 1.32 0.66 2 1 C-0.33333333 3.33333333 -2.66666667 5.66666667 -5 8 C-6.32 7.67 -7.64 7.34 -9 7 C-6.03 4.69 -3.06 2.38 0 0 Z " fill="#68B55E" transform="translate(320,262)"/>
<path d="M0 0 C0.33 0 0.66 0 1 0 C1.08121924 1.60332791 1.13929134 3.20784026 1.1875 4.8125 C1.22230469 5.70582031 1.25710938 6.59914062 1.29296875 7.51953125 C0.95081002 10.41647515 0.24606427 11.22555028 -2 13 C-2.99 12.67 -3.98 12.34 -5 12 C-4.52949219 11.60167969 -4.05898438 11.20335937 -3.57421875 10.79296875 C-1.68239447 8.6382607 -1.33939211 7.10908118 -0.8125 4.3125 C-0.65394531 3.50425781 -0.49539063 2.69601563 -0.33203125 1.86328125 C-0.22246094 1.24839844 -0.11289062 0.63351563 0 0 Z " fill="#A6D5A0" transform="translate(324,202)"/>
<path d="M0 0 C1.09570312 0.00902344 2.19140625 0.01804687 3.3203125 0.02734375 C4.16335937 0.03894531 5.00640625 0.05054687 5.875 0.0625 C5.875 0.3925 5.875 0.7225 5.875 1.0625 C4.91787109 1.15337891 4.91787109 1.15337891 3.94140625 1.24609375 C3.11511719 1.32988281 2.28882812 1.41367187 1.4375 1.5 C0.20193359 1.62181641 0.20193359 1.62181641 -1.05859375 1.74609375 C-3.11162025 1.85180815 -3.11162025 1.85180815 -4.125 3.0625 C-6.45797433 3.10342937 -8.79205225 3.10491723 -11.125 3.0625 C-6.92562487 0.26291658 -5.02794562 -0.05348878 0 0 Z " fill="#75A87B" transform="translate(102.125,31.9375)"/>
<path d="M0 0 C0.99 0.33 1.98 0.66 3 1 C3 1.66 3 2.32 3 3 C3.99 3 4.98 3 6 3 C6 4.32 6 5.64 6 7 C4.125 6.875 4.125 6.875 2 6 C0.75 2.9375 0.75 2.9375 0 0 Z " fill="#92BF80" transform="translate(267,468)"/>
<path d="M0 0 C-3.465 2.97 -3.465 2.97 -7 6 C-7.33 4.35 -7.66 2.7 -8 1 C-3.375 -1.125 -3.375 -1.125 0 0 Z " fill="#8BC37E" transform="translate(425,401)"/>
<path d="M0 0 C2.75 0.25 2.75 0.25 5 1 C2.38485683 3.12038635 -0.19637616 5.13091744 -3 7 C-3.33 6.01 -3.66 5.02 -4 4 C-2.3125 1.9375 -2.3125 1.9375 0 0 Z " fill="#6AB45D" transform="translate(393,297)"/>
<path d="M0 0 C0.99 0.33 1.98 0.66 3 1 C0.69 3.31 -1.62 5.62 -4 8 C-4.33 6.68 -4.66 5.36 -5 4 C-2.6875 1.9375 -2.6875 1.9375 0 0 Z " fill="#AEDD9B" transform="translate(304,272)"/>
<path d="M0 0 C2.97 0.33 5.94 0.66 9 1 C5.55549263 3.29633824 3.06187717 3.54016485 -1 4 C-0.67 2.68 -0.34 1.36 0 0 Z " fill="#79BD6C" transform="translate(339,444)"/>
<path d="M0 0 C3.63 0 7.26 0 11 0 C6.0617284 3.7037037 6.0617284 3.7037037 3 4 C2.01 3.34 1.02 2.68 0 2 C0 1.34 0 0.68 0 0 Z " fill="#7BBA70" transform="translate(366,433)"/>
<path d="M0 0 C0.6875 1.75 0.6875 1.75 1 4 C-0.25 6.25 -0.25 6.25 -2 8 C-2.99 8 -3.98 8 -5 8 C-4.34 6.35 -3.68 4.7 -3 3 C-2.34 3 -1.68 3 -1 3 C-0.67 2.01 -0.34 1.02 0 0 Z " fill="#82C379" transform="translate(343,360)"/>
<path d="M0 0 C0.66 0.66 1.32 1.32 2 2 C1.875 4.4375 1.875 4.4375 1 7 C-0.32 7.99 -1.64 8.98 -3 10 C-2.01 6.7 -1.02 3.4 0 0 Z " fill="#73BC69" transform="translate(263,336)"/>
<path d="M0 0 C-0.5 1.9375 -0.5 1.9375 -2 4 C-4.69658452 4.68790422 -7.2017019 4.81946464 -10 5 C-4.03225806 0 -4.03225806 0 0 0 Z " fill="#79BD6C" transform="translate(362,237)"/>
<path d="M0 0 C3.22430866 4.83646298 3.09242903 7.26939984 3 13 C0.41073669 10.41073669 0.62601957 8.97294721 0.375 5.375 C0.30023438 4.37210938 0.22546875 3.36921875 0.1484375 2.3359375 C0.09945313 1.56507813 0.05046875 0.79421875 0 0 Z " fill="#6E9E74" transform="translate(396,136)"/>
<path d="M0 0 C0.33 0.66 0.66 1.32 1 2 C-1.34375 8.5625 -1.34375 8.5625 -5 11 C-3.77472971 6.94718288 -2.30119506 3.55639236 0 0 Z " fill="#7CC070" transform="translate(274,312)"/>
<path d="M0 0 C0.99 0 1.98 0 3 0 C3 0.66 3 1.32 3 2 C2.34 2 1.68 2 1 2 C1 2.66 1 3.32 1 4 C-0.8125 5.6875 -0.8125 5.6875 -3 7 C-3.99 6.67 -4.98 6.34 -6 6 C-4.6875 4.5 -4.6875 4.5 -3 3 C-2.01 3 -1.02 3 0 3 C0 2.01 0 1.02 0 0 Z " fill="#8EC382" transform="translate(376,311)"/>
<path d="M0 0 C0.33 0.99 0.66 1.98 1 3 C-1.64 5.31 -4.28 7.62 -7 10 C-7.66 9.67 -8.32 9.34 -9 9 C-6.03 6.03 -3.06 3.06 0 0 Z " fill="#6CB761" transform="translate(307,272)"/>
<path d="M0 0 C2.64 0 5.28 0 8 0 C6.25 2 6.25 2 4 4 C2.68 4 1.36 4 0 4 C0 2.68 0 1.36 0 0 Z " fill="#629A69" transform="translate(377,213)"/>
<path d="M0 0 C1.14926266 0.95421808 2.29430541 1.91352045 3.4375 2.875 C4.07558594 3.40867188 4.71367187 3.94234375 5.37109375 4.4921875 C7 6 7 6 8 8 C6.35 7.67 4.7 7.34 3 7 C3 6.01 3 5.02 3 4 C2.01 3.67 1.02 3.34 0 3 C0 2.01 0 1.02 0 0 Z " fill="#6BA173" transform="translate(324,60)"/>
<path d="M0 0 C0.33 0.99 0.66 1.98 1 3 C2.65 2.67 4.3 2.34 6 2 C4.875 3.5 4.875 3.5 3 5 C-0.1875 5.1875 -0.1875 5.1875 -3 5 C-2.01 3.35 -1.02 1.7 0 0 Z " fill="#62B357" transform="translate(295,477)"/>
<path d="M0 0 C0.99 0.33 1.98 0.66 3 1 C2.49396008 3.16874252 2.00016187 4.99967627 1 7 C0.34 7 -0.32 7 -1 7 C-0.67 4.69 -0.34 2.38 0 0 Z " fill="#62B05C" transform="translate(292,467)"/>
<path d="M0 0 C0.33 0.66 0.66 1.32 1 2 C-0.8125 5 -0.8125 5 -3 8 C-3.99 8 -4.98 8 -6 8 C-4.55746343 4.63408134 -2.66735273 2.48952921 0 0 Z " fill="#8AC47D" transform="translate(372,326)"/>
<path d="M0 0 C-0.33 1.32 -0.66 2.64 -1 4 C-3.375 4.625 -3.375 4.625 -6 5 C-6.66 4.34 -7.32 3.68 -8 3 C-2.25 0 -2.25 0 0 0 Z " fill="#85BE78" transform="translate(394,221)"/>
<path d="M0 0 C0.99 0.99 1.98 1.98 3 3 C2.67 3.99 2.34 4.98 2 6 C1.01 6.33 0.02 6.66 -1 7 C-1.33 7.66 -1.66 8.32 -2 9 C-1.34 6.03 -0.68 3.06 0 0 Z " fill="#87C680" transform="translate(293,460)"/>
<path d="M0 0 C1.32 0.33 2.64 0.66 4 1 C0.535 3.97 0.535 3.97 -3 7 C-3.33 6.01 -3.66 5.02 -4 4 C-3.01 4 -2.02 4 -1 4 C-0.67 2.68 -0.34 1.36 0 0 Z " fill="#ADDE9B" transform="translate(295,280)"/>
<path d="M0 0 C0.66 0 1.32 0 2 0 C1.8125 1.875 1.8125 1.875 1 4 C-1.5625 5.25 -1.5625 5.25 -4 6 C-2.84826645 3.53199953 -1.95216435 1.95216435 0 0 Z " fill="#53965D" transform="translate(134,129)"/>
<path d="M0 0 C0.66 0 1.32 0 2 0 C1.67 1.65 1.34 3.3 1 5 C0.34 5 -0.32 5 -1 5 C-1.33 5.66 -1.66 6.32 -2 7 C-2.33 6.34 -2.66 5.68 -3 5 C-1.6875 2.375 -1.6875 2.375 0 0 Z " fill="#84BD7C" transform="translate(303,473)"/>
<path d="M0 0 C0.33 0.66 0.66 1.32 1 2 C0.06553465 4.03144641 -0.93224776 6.03533587 -2 8 C-2.33 8 -2.66 8 -3 8 C-3 5.69 -3 3.38 -3 1 C-2.01 0.67 -1.02 0.34 0 0 Z " fill="#82BD74" transform="translate(463,345)"/>
<path d="M0 0 C1.32 0.66 2.64 1.32 4 2 C3 4 3 4 -0.0625 5.125 C-1.031875 5.41375 -2.00125 5.7025 -3 6 C-2.67 5.01 -2.34 4.02 -2 3 C-1.34 3 -0.68 3 0 3 C0 2.01 0 1.02 0 0 Z " fill="#73BE6D" transform="translate(339,342)"/>
<path d="M0 0 C2.475 0.495 2.475 0.495 5 1 C5 2.65 5 4.3 5 6 C4.34 6 3.68 6 3 6 C2.67 5.01 2.34 4.02 2 3 C1.34 2.67 0.68 2.34 0 2 C0 1.34 0 0.68 0 0 Z " fill="#76BC6C" transform="translate(466,207)"/>
<path d="M0 0 C0.66 0.33 1.32 0.66 2 1 C0.6875 3.5 0.6875 3.5 -1 6 C-1.99 6 -2.98 6 -4 6 C-2.84826645 3.53199953 -1.95216435 1.95216435 0 0 Z " fill="#4F9259" transform="translate(134,193)"/>
</svg>
